<?xml version="1.0" encoding="UTF-8" standalone="no" ?>
<!DOCTYPE svg PUBLIC "-//W3C//DTD SVG 1.1//EN" "http://www.w3.org/Graphics/SVG/1.1/DTD/svg11.dtd">
<svg xmlns="http://www.w3.org/2000/svg" xmlns:xlink="http://www.w3.org/1999/xlink" version="1.1" width="640" height="640" viewBox="0 0 640 640" xml:space="preserve">
<desc>Created with Fabric.js 4.6.0</desc>
<defs>
</defs>
<g transform="matrix(1.95 0 0 1.95 320 320)" id="-IGMrQ75Nwj-l73NPTfaD"  >
<g style="" vector-effect="non-scaling-stroke"   >
		<g transform="matrix(1 0 0 1 -41.66 -54.88)" id="SrcqJ-oFhNalLvs6hyqch"  >
<path style="stroke: none; stroke-width: 1; stroke-dasharray: none; stroke-linecap: butt; stroke-dashoffset: 0; stroke-linejoin: miter; stroke-miterlimit: 4; fill: rgb(92,75,81); fill-rule: nonzero; opacity: 1;" vector-effect="non-scaling-stroke"  transform=" translate(-570.49, -258.85)" d="M 609.2 282.6 C 608.7 282.6 608.1 282.5 607.7 282.20000000000005 L 581.7 266.00000000000006 L 550.4000000000001 266.00000000000006 C 549.5000000000001 266.00000000000006 548.6000000000001 265.6000000000001 548.1000000000001 264.80000000000007 L 529.5000000000001 239.80000000000007 C 528.5000000000001 238.50000000000006 528.8000000000001 236.70000000000007 530.1000000000001 235.70000000000007 C 531.4000000000001 234.70000000000007 533.2000000000002 235.00000000000009 534.2000000000002 236.30000000000007 L 551.9000000000002 260.20000000000005 L 582.5000000000002 260.20000000000005 C 583.0000000000002 260.20000000000005 583.6000000000003 260.40000000000003 584.0000000000002 260.6 L 610.7000000000003 277.3 C 612.1000000000003 278.1 612.5000000000002 279.90000000000003 611.6000000000003 281.3 C 611.1 282.2 610.2 282.6 609.2 282.6 z" stroke-linecap="round" />
</g>
		<g transform="matrix(1 0 0 1 41.39 -54.93)" id="CbUOiDbisI0POU1OahRj3"  >
<path style="stroke: none; stroke-width: 1; stroke-dasharray: none; stroke-linecap: butt; stroke-dashoffset: 0; stroke-linejoin: miter; stroke-miterlimit: 4; fill: rgb(92,75,81); fill-rule: nonzero; opacity: 1;" vector-effect="non-scaling-stroke"  transform=" translate(-653.54, -258.8)" d="M 614.9 282.6 C 613.9 282.6 613 282.1 612.4 281.20000000000005 C 611.6 279.80000000000007 612 278.1 613.3 277.20000000000005 L 640 260.50000000000006 C 640.5 260.20000000000005 641 260.1000000000001 641.5 260.1000000000001 L 672.1 260.1000000000001 L 689.8000000000001 236.20000000000007 C 690.8000000000001 234.90000000000006 692.6 234.60000000000008 693.9000000000001 235.60000000000008 C 695.2 236.60000000000008 695.5000000000001 238.4000000000001 694.5000000000001 239.70000000000007 L 675.9000000000001 264.70000000000005 C 675.4000000000001 265.40000000000003 674.5000000000001 265.90000000000003 673.6000000000001 265.90000000000003 L 642.3000000000002 265.90000000000003 L 616.3000000000002 282.1 C 616 282.5 615.5 282.6 614.9 282.6 z" stroke-linecap="round" />
</g>
		<g transform="matrix(1 0 0 1 -41.67 3.04)" id="MFBHtpYgcroSLkO6WSRIL"  >
<path style="stroke: none; stroke-width: 1; stroke-dasharray: none; stroke-linecap: butt; stroke-dashoffset: 0; stroke-linejoin: miter; stroke-miterlimit: 4; fill: rgb(92,75,81); fill-rule: nonzero; opacity: 1;" vector-effect="non-scaling-stroke"  transform=" translate(-570.48, -316.77)" d="M 531.8 338.1 C 531.1999999999999 338.1 530.5999999999999 337.90000000000003 530.0999999999999 337.6 C 528.8 336.70000000000005 528.4999999999999 334.90000000000003 529.3999999999999 333.6 L 547.9999999999999 307.8 C 548.2999999999998 307.3 548.7999999999998 307 549.3999999999999 306.8 L 581.4999999999999 295.6 C 582.2999999999998 295.3 583.1999999999999 295.40000000000003 583.9999999999999 295.90000000000003 L 610.6999999999999 312.6 C 612.0999999999999 313.40000000000003 612.4999999999999 315.20000000000005 611.5999999999999 316.6 C 610.8 318 608.9999999999999 318.40000000000003 607.5999999999999 317.5 L 581.9999999999999 301.6 L 552.0999999999999 312.1 L 533.9999999999999 337.20000000000005 C 533.6 337.7 532.7 338.1 531.8 338.1 z" stroke-linecap="round" />
</g>
		<g transform="matrix(1 0 0 1 41.4 2.89)" id="eDamJgtk6xfd707UnK7fO"  >
<path style="stroke: none; stroke-width: 1; stroke-dasharray: none; stroke-linecap: butt; stroke-dashoffset: 0; stroke-linejoin: miter; stroke-miterlimit: 4; fill: rgb(92,75,81); fill-rule: nonzero; opacity: 1;" vector-effect="non-scaling-stroke"  transform=" translate(-653.55, -316.62)" d="M 692.4 338.1 C 691.5 338.1 690.6 337.70000000000005 690 336.90000000000003 L 672 311.8 L 642 301.3 L 616.4 317.2 C 615 318 613.3 317.59999999999997 612.4 316.3 C 611.6 314.90000000000003 612 313.2 613.3 312.3 L 640 295.6 C 640.7 295.1 641.7 295 642.5 295.3 L 674.6 306.5 C 675.2 306.7 675.6 307.1 676 307.5 L 694.6 333.3 C 695.5 334.6 695.2 336.40000000000003 693.9 337.3 C 693.5 337.9 692.9 338.1 692.4 338.1 z" stroke-linecap="round" />
</g>
		<g transform="matrix(1 0 0 1 -53.87 68.76)" id="H69UubmyI2HWVxqKpGYPs"  >
<path style="stroke: none; stroke-width: 1; stroke-dasharray: none; stroke-linecap: butt; stroke-dashoffset: 0; stroke-linejoin: miter; stroke-miterlimit: 4; fill: rgb(92,75,81); fill-rule: nonzero; opacity: 1;" vector-effect="non-scaling-stroke"  transform=" translate(-558.28, -382.49)" d="M 508.2 435.2 C 507 435.2 505.9 434.4 505.5 433.2 C 505 431.7 505.8 430 507.3 429.5 L 526.9 422.8 L 547.3 350.5 C 547.6999999999999 349.3 548.8 348.4 550.0999999999999 348.4 L 577.4999999999999 348.4 L 606.7999999999998 330.2 C 608.1999999999998 329.4 609.8999999999999 329.8 610.7999999999998 331.09999999999997 C 611.5999999999998 332.49999999999994 611.1999999999998 334.2 609.8999999999999 335.09999999999997 L 579.8999999999999 353.79999999999995 C 579.3999999999999 354.09999999999997 578.8999999999999 354.19999999999993 578.3999999999999 354.19999999999993 L 552.3999999999999 354.19999999999993 L 532 425.9 C 531.7 426.79999999999995 531 427.5 530.1 427.9 L 509 435.09999999999997 C 508.8 435.1 508.5 435.2 508.2 435.2 z" stroke-linecap="round" />
</g>
		<g transform="matrix(1 0 0 1 53.84 68.68)" id="HdWA61JnUfGieF89EPi_p"  >
<path style="stroke: none; stroke-width: 1; stroke-dasharray: none; stroke-linecap: butt; stroke-dashoffset: 0; stroke-linejoin: miter; stroke-miterlimit: 4; fill: rgb(92,75,81); fill-rule: nonzero; opacity: 1;" vector-effect="non-scaling-stroke"  transform=" translate(-665.98, -382.41)" d="M 716 435.2 C 715.7 435.2 715.4 435.2 715.1 435 L 694 427.8 C 693.1 427.5 692.4 426.8 692.1 425.8 L 671.9 354.1 L 645.9 354.1 C 645.4 354.1 644.8 353.90000000000003 644.4 353.70000000000005 L 614.4 335.00000000000006 C 613 334.20000000000005 612.6 332.40000000000003 613.5 331.00000000000006 C 614.3 329.6000000000001 616.1 329.20000000000005 617.5 330.1000000000001 L 646.8 348.30000000000007 L 674.1999999999999 348.30000000000007 C 675.4999999999999 348.30000000000007 676.5999999999999 349.20000000000005 676.9999999999999 350.4000000000001 L 697.3999999999999 422.7000000000001 L 716.9999999999999 429.4000000000001 C 718.4999999999999 429.9000000000001 719.2999999999998 431.6000000000001 718.7999999999998 433.1000000000001 C 718.3 434.4 717.2 435.2 716 435.2 z" stroke-linecap="round" />
</g>
		<g transform="matrix(1 0 0 1 -26.16 -105.55)" id="sr4nDnJwNhEpOndu3TVCR"  >
<path style="stroke: none; stroke-width: 1; stroke-dasharray: none; stroke-linecap: butt; stroke-dashoffset: 0; stroke-linejoin: miter; stroke-miterlimit: 4; fill: rgb(92,75,81); fill-rule: nonzero; opacity: 1;" vector-effect="non-scaling-stroke"  transform=" translate(-585.99, -208.18)" d="M 602.9 224.1 C 601.6 224.1 600.5 223.1 600.5 221.79999999999998 C 600.1 212.89999999999998 597.3 206.39999999999998 592.1 202.2 C 583 195 569.6 197.29999999999998 569.5 197.29999999999998 C 568.2 197.49999999999997 566.9 196.7 566.7 195.39999999999998 C 566.5 194.09999999999997 567.3000000000001 192.79999999999998 568.6 192.59999999999997 C 569.2 192.49999999999997 584.3000000000001 189.89999999999998 595.1 198.49999999999997 C 601.4 203.59999999999997 604.9 211.39999999999998 605.3000000000001 221.69999999999996 C 605.4000000000001 222.99999999999997 604.3000000000001 224.19999999999996 603.0000000000001 224.19999999999996 C 603 224.1 603 224.1 602.9 224.1 z" stroke-linecap="round" />
</g>
		<g transform="matrix(1 0 0 1 25.98 -105.65)" id="ZVBYTRjuP0NofsSMqP-J8"  >
<path style="stroke: none; stroke-width: 1; stroke-dasharray: none; stroke-linecap: butt; stroke-dashoffset: 0; stroke-linejoin: miter; stroke-miterlimit: 4; fill: rgb(92,75,81); fill-rule: nonzero; opacity: 1;" vector-effect="non-scaling-stroke"  transform=" translate(-638.13, -208.08)" d="M 621.2 224.1 C 621.2 224.1 621.1 224.1 621.1 224.1 C 619.8000000000001 224 618.7 222.9 618.8000000000001 221.6 C 619.2 211.29999999999998 622.7 203.5 629.0000000000001 198.4 C 639.8000000000001 189.8 654.9000000000001 192.4 655.5000000000001 192.5 C 656.8000000000001 192.7 657.7000000000002 194 657.4000000000001 195.3 C 657.2 196.60000000000002 655.9000000000001 197.5 654.6000000000001 197.20000000000002 C 654.5000000000001 197.20000000000002 641.0000000000001 194.9 631.9000000000001 202.10000000000002 C 626.7 206.3 623.9000000000001 212.8 623.5000000000001 221.70000000000002 C 623.6 223.1 622.5 224.1 621.2 224.1 z" stroke-linecap="round" />
</g>
		<g transform="matrix(1 0 0 1 -0.05 67.67)" id="kozfpLTgRTwTkvaH2TBsV"  >
<path style="stroke: none; stroke-width: 1; stroke-dasharray: none; stroke-linecap: butt; stroke-dashoffset: 0; stroke-linejoin: miter; stroke-miterlimit: 4; fill: rgb(92,75,81); fill-rule: nonzero; opacity: 1;" vector-effect="non-scaling-stroke"  transform=" translate(-612.1, -381.4)" d="M 642.1 363.4 C 642.1 393.2 628.7 435.4 612.1 435.4 C 595.5 435.4 582.1 393.2 582.1 363.4 C 582.1 333.59999999999997 595.5 327.4 612.1 327.4 C 628.7 327.4 642.1 333.6 642.1 363.4 z" stroke-linecap="round" />
</g>
		<g transform="matrix(1 0 0 1 -0.05 4.77)" id="uYTsfiVmikNQ5nJVExKqI"  >
<path style="stroke: none; stroke-width: 1; stroke-dasharray: none; stroke-linecap: butt; stroke-dashoffset: 0; stroke-linejoin: miter; stroke-miterlimit: 4; fill: rgb(102,87,93); fill-rule: nonzero; opacity: 1;" vector-effect="non-scaling-stroke"  transform=" translate(-612.1, -318.5)" d="M 612.1 298.3 L 612.1 298.3 C 604.5 298.3 598.3000000000001 304.5 598.3000000000001 312.1 L 598.3000000000001 324.90000000000003 C 598.3000000000001 332.50000000000006 604.5000000000001 338.70000000000005 612.1 338.70000000000005 L 612.1 338.70000000000005 C 619.7 338.70000000000005 625.9 332.50000000000006 625.9 324.90000000000003 L 625.9 312.1 C 625.9 304.5 619.7 298.3 612.1 298.3 z" stroke-linecap="round" />
</g>
		<g transform="matrix(1 0 0 1 -0.1 -32.08)" id="mwxUSZyWxo-Z0YO9G4W4v"  >
<path style="stroke: none; stroke-width: 1; stroke-dasharray: none; stroke-linecap: butt; stroke-dashoffset: 0; stroke-linejoin: miter; stroke-miterlimit: 4; fill: rgb(92,75,81); fill-rule: nonzero; opacity: 1;" vector-effect="non-scaling-stroke"  transform=" translate(-612.05, -281.65)" d="M 616.9 254.4 L 607.1999999999999 254.4 C 599.5999999999999 254.4 593.4 260.6 593.4 268.2 L 593.4 295.09999999999997 C 593.4 302.7 599.6 308.9 607.1999999999999 308.9 L 616.9 308.9 C 624.5 308.9 630.6999999999999 302.7 630.6999999999999 295.09999999999997 L 630.6999999999999 268.2 C 630.8 260.6 624.6 254.4 616.9 254.4 z" stroke-linecap="round" />
</g>
		<g transform="matrix(1 0 0 1 -0.05 -78.73)" id="mF2AvbhaRVJOLYDYxFOcx"  >
<path style="stroke: none; stroke-width: 1; stroke-dasharray: none; stroke-linecap: butt; stroke-dashoffset: 0; stroke-linejoin: miter; stroke-miterlimit: 4; fill: rgb(102,87,93); fill-rule: nonzero; opacity: 1;" vector-effect="non-scaling-stroke"  transform=" translate(-24.5, -30.4)" d="M 0 30.4 C 0 13.61054 10.96902 0 24.5 0 C 38.03098 0 49 13.61054 49 30.4 C 49 47.18946 38.03098 60.8 24.5 60.8 C 10.96902 60.8 0 47.18946 0 30.4 z" stroke-linecap="round" />
</g>
</g>
</g>
</svg>