<?xml version="1.0" encoding="UTF-8" standalone="no" ?>
<!DOCTYPE svg PUBLIC "-//W3C//DTD SVG 1.1//EN" "http://www.w3.org/Graphics/SVG/1.1/DTD/svg11.dtd">
<svg xmlns="http://www.w3.org/2000/svg" xmlns:xlink="http://www.w3.org/1999/xlink" version="1.1" width="640" height="640" viewBox="0 0 640 640" xml:space="preserve">
<desc>Created with Fabric.js 4.6.0</desc>
<defs>
</defs>
<g transform="matrix(1.95 0 0 1.95 320 320)" id="k9DMX8hOtcv7FssO7dNtT"  >
<g style="" vector-effect="non-scaling-stroke"   >
		<g transform="matrix(1 0 0 1 -31.94 32.52)" id="LBA95ww7qHijybcxjEOan"  >
<path style="stroke: none; stroke-width: 1; stroke-dasharray: none; stroke-linecap: butt; stroke-dashoffset: 0; stroke-linejoin: miter; stroke-miterlimit: 4; fill: rgb(92,75,81); fill-rule: nonzero; opacity: 1;" vector-effect="non-scaling-stroke"  transform=" translate(-580.17, -734.32)" d="M 550.6 753.1 C 550 753 549.6 752.5 549.5 751.9 C 549.4 751.1 550 750.5 550.8 750.4 L 560.8 749.6 L 578.8 718.1 C 579.0999999999999 717.6 579.6999999999999 717.3000000000001 580.4 717.4 L 593.1999999999999 720.6 L 608.9999999999999 715.5 C 609.6999999999999 715.3 610.4999999999999 715.7 610.7999999999998 716.4 C 610.9999999999999 717.1 610.5999999999998 717.9 609.8999999999999 718.1999999999999 L 593.6999999999998 723.4 C 593.4999999999998 723.5 593.1999999999998 723.5 592.8999999999999 723.4 L 580.6999999999998 720.4 L 562.8999999999999 751.6 C 562.6999999999998 752 562.2999999999998 752.3000000000001 561.7999999999998 752.3000000000001 L 551.0999999999998 753.2 C 550.9 753.1 550.8 753.1 550.6 753.1 z" stroke-linecap="round" />
</g>
		<g transform="matrix(1 0 0 1 28.92 32.52)" id="igTP0wu4sRuihCp3lS_0o"  >
<path style="stroke: none; stroke-width: 1; stroke-dasharray: none; stroke-linecap: butt; stroke-dashoffset: 0; stroke-linejoin: miter; stroke-miterlimit: 4; fill: rgb(92,75,81); fill-rule: nonzero; opacity: 1;" vector-effect="non-scaling-stroke"  transform=" translate(-641.03, -734.32)" d="M 670.6 753.1 C 671.2 753 671.6 752.5 671.7 751.9 C 671.8000000000001 751.1 671.2 750.5 670.4000000000001 750.4 L 660.4000000000001 749.6 L 642.4000000000001 718.1 C 642.1000000000001 717.6 641.5000000000001 717.3000000000001 640.8000000000001 717.4 L 628.0000000000001 720.6 L 612.2000000000002 715.5 C 611.5000000000001 715.3 610.7000000000002 715.7 610.4000000000002 716.4 C 610.2000000000002 717.1 610.6000000000003 717.9 611.3000000000002 718.1999999999999 L 627.5000000000002 723.4 C 627.7000000000003 723.5 628.0000000000002 723.5 628.3000000000002 723.4 L 640.5000000000002 720.4 L 658.3000000000002 751.6 C 658.5000000000002 752 658.9000000000002 752.3000000000001 659.4000000000002 752.3000000000001 L 670.1000000000003 753.2 C 670.3 753.1 670.5 753.1 670.6 753.1 z" stroke-linecap="round" />
</g>
		<g transform="matrix(1 0 0 1 -22.25 -43.08)" id="K1eYpQerAMgm-OERgNs3p"  >
<path style="stroke: none; stroke-width: 1; stroke-dasharray: none; stroke-linecap: butt; stroke-dashoffset: 0; stroke-linejoin: miter; stroke-miterlimit: 4; fill: rgb(92,75,81); fill-rule: nonzero; opacity: 1;" vector-effect="non-scaling-stroke"  transform=" translate(-589.85, -658.72)" d="M 606.3 678 C 606 677.9 605.8 677.7 605.5999999999999 677.5 L 594.4999999999999 664.4 L 577.8999999999999 659.1 C 577.3999999999999 658.9 576.9999999999999 658.6 576.8999999999999 658.1 L 571.2999999999998 641.6 C 570.9999999999999 640.8000000000001 571.4999999999999 639.8000000000001 572.2999999999998 639.5 C 573.0999999999998 639.2 574.0999999999998 639.7 574.3999999999999 640.5 L 579.6999999999998 656.2 L 595.9999999999998 661.4000000000001 C 596.2999999999997 661.5000000000001 596.4999999999998 661.7 596.6999999999998 661.9000000000001 L 608.0999999999998 675.3000000000001 C 608.6999999999998 676.0000000000001 608.5999999999998 677.0000000000001 607.8999999999997 677.6 C 607.4 678 606.8 678.1 606.3 678 z" stroke-linecap="round" />
</g>
		<g transform="matrix(1 0 0 1 22.14 -43.08)" id="JcBgPavdu8-wW9v5o4T_V"  >
<path style="stroke: none; stroke-width: 1; stroke-dasharray: none; stroke-linecap: butt; stroke-dashoffset: 0; stroke-linejoin: miter; stroke-miterlimit: 4; fill: rgb(92,75,81); fill-rule: nonzero; opacity: 1;" vector-effect="non-scaling-stroke"  transform=" translate(-634.25, -658.72)" d="M 617.8 678 C 618.0999999999999 677.9 618.3 677.7 618.5 677.5 L 629.6 664.4 L 646.2 659.1 C 646.7 658.9 647.1 658.6 647.2 658.1 L 652.8000000000001 641.6 C 653.1 640.8000000000001 652.6 639.8000000000001 651.8000000000001 639.5 C 651.0000000000001 639.2 650.0000000000001 639.7 649.7 640.5 L 644.4000000000001 656.2 L 628.1000000000001 661.4000000000001 C 627.8000000000002 661.5000000000001 627.6000000000001 661.7 627.4000000000001 661.9000000000001 L 616.0000000000001 675.3000000000001 C 615.4000000000001 676.0000000000001 615.5000000000001 677.0000000000001 616.2000000000002 677.6 C 616.7 678 617.3 678.1 617.8 678 z" stroke-linecap="round" />
</g>
		<g transform="matrix(1 0 0 1 -16.01 -81.1)" id="wKvGrLJ2ZWwQk2gfZyoEF"  >
<path style="stroke: none; stroke-width: 1; stroke-dasharray: none; stroke-linecap: butt; stroke-dashoffset: 0; stroke-linejoin: miter; stroke-miterlimit: 4; fill: rgb(92,75,81); fill-rule: nonzero; opacity: 1;" vector-effect="non-scaling-stroke"  transform=" translate(-596.09, -620.7)" d="M 606.5 630.5 C 605.7 630.5 605.1 629.9 605 629.1 C 604.8 623.7 603 619.6 599.8 617.1 C 594.1999999999999 612.7 586 614.1 585.9 614.1 C 585.1 614.2 584.3 613.7 584.1999999999999 612.9 C 584.0999999999999 612.1 584.5999999999999 611.3 585.4 611.1999999999999 C 585.8 611.0999999999999 595 609.4999999999999 601.6999999999999 614.8 C 605.5999999999999 617.9 607.6999999999999 622.6999999999999 607.9999999999999 629 C 608 629.7 607.4 630.4 606.5 630.5 C 606.5 630.5 606.5 630.5 606.5 630.5 z" stroke-linecap="round" />
</g>
		<g transform="matrix(1 0 0 1 16 -81.1)" id="jQKHgZGAyA6P_zmejGxku"  >
<path style="stroke: none; stroke-width: 1; stroke-dasharray: none; stroke-linecap: butt; stroke-dashoffset: 0; stroke-linejoin: miter; stroke-miterlimit: 4; fill: rgb(92,75,81); fill-rule: nonzero; opacity: 1;" vector-effect="non-scaling-stroke"  transform=" translate(-628.11, -620.7)" d="M 617.7 630.5 C 617.7 630.5 617.6 630.5 617.7 630.5 C 616.8000000000001 630.5 616.2 629.8 616.2 629 C 616.5 622.7 618.6 617.9 622.5 614.8 C 629.1 609.5 638.4 611.0999999999999 638.8 611.1999999999999 C 639.5999999999999 611.3 640.0999999999999 612.0999999999999 640 612.9 C 639.9 613.6999999999999 639.1 614.1999999999999 638.3 614.1 C 638.1999999999999 614.1 629.9 612.7 624.4 617.1 C 621.1999999999999 619.6 619.5 623.7 619.3 629.1 C 619.1 629.8 618.5 630.5 617.7 630.5 z" stroke-linecap="round" />
</g>
		<g transform="matrix(1 0 0 1 -0.01 40.65)" id="jjDGEaAscOYnfF6jw9vNv"  >
<path style="stroke: none; stroke-width: 1; stroke-dasharray: none; stroke-linecap: butt; stroke-dashoffset: 0; stroke-linejoin: miter; stroke-miterlimit: 4; fill: rgb(128,174,207); fill-rule: nonzero; opacity: 1;" vector-effect="non-scaling-stroke"  transform=" translate(-612.1, -742.45)" d="M 637.9 734.5 C 637.9 762.3 612.1 792.7 612.1 792.7 C 612.1 792.7 586.3000000000001 762.2 586.3000000000001 734.5 C 586.3000000000001 706.8 597.9000000000001 692.2 612.1 692.2 C 626.3 692.2 637.9 706.7 637.9 734.5 z" stroke-linecap="round" />
</g>
		<g transform="matrix(1 0 0 1 -0.11 1.25)" id="xQUaYD4Q0TDoln4AqLP8e"  >
<path style="stroke: none; stroke-width: 1; stroke-dasharray: none; stroke-linecap: butt; stroke-dashoffset: 0; stroke-linejoin: miter; stroke-miterlimit: 4; fill: rgb(88,142,180); fill-rule: nonzero; opacity: 1;" vector-effect="non-scaling-stroke"  transform=" translate(-612, -703.05)" d="M 595.8 700.2 C 594.4 701.9000000000001 593.1999999999999 703.8000000000001 592 705.9000000000001 L 632 705.9000000000001 C 630.9 703.7 629.6 701.8000000000001 628.2 700.2 L 595.8 700.2 z" stroke-linecap="round" />
</g>
		<g transform="matrix(1 0 0 1 -0.06 13.25)" id="iuBxfBsN450bOs-EgKoYX"  >
<path style="stroke: none; stroke-width: 1; stroke-dasharray: none; stroke-linecap: butt; stroke-dashoffset: 0; stroke-linejoin: miter; stroke-miterlimit: 4; fill: rgb(88,142,180); fill-rule: nonzero; opacity: 1;" vector-effect="non-scaling-stroke"  transform=" translate(-612.05, -715.05)" d="M 589.5 712.2 C 588.9 714 588.4 715.9000000000001 587.9 717.9000000000001 L 636.1999999999999 717.9000000000001 C 635.8 715.9000000000001 635.1999999999999 714.0000000000001 634.5999999999999 712.2 L 589.5 712.2 z" stroke-linecap="round" />
</g>
		<g transform="matrix(1 0 0 1 -0.01 25.15)" id="XgE-B3f0sAEJXMgOWPPjk"  >
<path style="stroke: none; stroke-width: 1; stroke-dasharray: none; stroke-linecap: butt; stroke-dashoffset: 0; stroke-linejoin: miter; stroke-miterlimit: 4; fill: rgb(88,142,180); fill-rule: nonzero; opacity: 1;" vector-effect="non-scaling-stroke"  transform=" translate(-612.1, -726.95)" d="M 586.9 724.1 C 586.6999999999999 725.9 586.5 727.8000000000001 586.4 729.8000000000001 L 637.8 729.8000000000001 C 637.6999999999999 727.8000000000001 637.5 725.9000000000001 637.3 724.1 L 586.9 724.1 z" stroke-linecap="round" />
</g>
		<g transform="matrix(1 0 0 1 -0.06 37.15)" id="YTj8mYLKtwnQVJ_R_W2av"  >
<path style="stroke: none; stroke-width: 1; stroke-dasharray: none; stroke-linecap: butt; stroke-dashoffset: 0; stroke-linejoin: miter; stroke-miterlimit: 4; fill: rgb(88,142,180); fill-rule: nonzero; opacity: 1;" vector-effect="non-scaling-stroke"  transform=" translate(-612.05, -738.95)" d="M 586.3 736.1 C 586.4 738 586.5 739.9 586.8 741.8000000000001 L 637.3 741.8000000000001 C 637.5999999999999 739.9000000000001 637.8 738.0000000000001 637.8 736.1 L 586.3 736.1 z" stroke-linecap="round" />
</g>
		<g transform="matrix(1 0 0 1 -0.01 49.05)" id="8YWlrBmSd1JpoWXRN1fTx"  >
<path style="stroke: none; stroke-width: 1; stroke-dasharray: none; stroke-linecap: butt; stroke-dashoffset: 0; stroke-linejoin: miter; stroke-miterlimit: 4; fill: rgb(88,142,180); fill-rule: nonzero; opacity: 1;" vector-effect="non-scaling-stroke"  transform=" translate(-612.1, -750.85)" d="M 588.1 748 C 588.6 749.9 589.2 751.8 589.8000000000001 753.7 L 634.4000000000001 753.7 C 635.0000000000001 751.8000000000001 635.6000000000001 749.9000000000001 636.1000000000001 748 L 588.1 748 z" stroke-linecap="round" />
</g>
		<g transform="matrix(1 0 0 1 -0.06 60.95)" id="VNlYWMd_UjwbhoYK9PQq8"  >
<path style="stroke: none; stroke-width: 1; stroke-dasharray: none; stroke-linecap: butt; stroke-dashoffset: 0; stroke-linejoin: miter; stroke-miterlimit: 4; fill: rgb(88,142,180); fill-rule: nonzero; opacity: 1;" vector-effect="non-scaling-stroke"  transform=" translate(-612.05, -762.75)" d="M 592.1 759.9 C 592.9 761.9 593.8000000000001 763.8 594.7 765.6 L 629.4000000000001 765.6 C 630.3000000000001 763.7 631.2 761.8000000000001 632.0000000000001 759.9 L 592.1 759.9 z" stroke-linecap="round" />
</g>
		<g transform="matrix(1 0 0 1 -0.01 72.95)" id="-iV8-yLj3DyRyAKBA97oO"  >
<path style="stroke: none; stroke-width: 1; stroke-dasharray: none; stroke-linecap: butt; stroke-dashoffset: 0; stroke-linejoin: miter; stroke-miterlimit: 4; fill: rgb(88,142,180); fill-rule: nonzero; opacity: 1;" vector-effect="non-scaling-stroke"  transform=" translate(-612.1, -774.75)" d="M 622.8 777.6 C 623.9 775.8000000000001 625.0999999999999 773.9 626.1999999999999 771.9 L 598 771.9 C 599.1 773.9 600.3 775.8 601.4 777.6 L 622.8 777.6 z" stroke-linecap="round" />
</g>
		<g transform="matrix(1 0 0 1 -0.01 -18.5)" id="Sf5GAVh7C7qcSp0Ve-AOp"  >
<path style="stroke: none; stroke-width: 1; stroke-dasharray: none; stroke-linecap: butt; stroke-dashoffset: 0; stroke-linejoin: miter; stroke-miterlimit: 4; fill: rgb(92,75,81); fill-rule: nonzero; opacity: 1;" vector-effect="non-scaling-stroke"  transform=" translate(-612.1, -683.3)" d="M 615.6 663.7 L 608.6 663.7 C 603.1 663.7 598.7 668.2 598.7 673.6 L 598.7 693 C 598.7 698.5 603.2 702.9 608.6 702.9 L 615.6 702.9 C 621.1 702.9 625.5 698.4 625.5 693 L 625.5 673.6 C 625.5 668.2 621.1 663.7 615.6 663.7 z" stroke-linecap="round" />
</g>
		<g transform="matrix(1 0 0 1 -0.01 -52.1)" id="CpCy-FTPwl-9mRzrkbZUg"  >
<path style="stroke: none; stroke-width: 1; stroke-dasharray: none; stroke-linecap: butt; stroke-dashoffset: 0; stroke-linejoin: miter; stroke-miterlimit: 4; fill: rgb(102,87,93); fill-rule: nonzero; opacity: 1;" vector-effect="non-scaling-stroke"  transform=" translate(-17.6, -21.8)" d="M 0 21.8 C 0 9.760190000000001 7.87979 0 17.6 0 C 27.320210000000003 0 35.2 9.76019 35.2 21.8 C 35.2 33.83981 27.320210000000003 43.6 17.6 43.6 C 7.879790000000002 43.6 0 33.83981 0 21.8 z" stroke-linecap="round" />
</g>
		<g transform="matrix(1 0 0 1 -48.52 16.22)" id="R8xoolFGv7h7kL6rHUxho"  >
<path style="stroke: none; stroke-width: 1; stroke-dasharray: none; stroke-linecap: butt; stroke-dashoffset: 0; stroke-linejoin: miter; stroke-miterlimit: 4; fill: rgb(88,142,180); fill-rule: nonzero; opacity: 1;" vector-effect="non-scaling-stroke"  transform=" translate(-563.58, -718.02)" d="M 608.1 701.5 C 608.3000000000001 705.2 606.7 708.9 603.7 711.1 C 590.8000000000001 721 554.7 746.6 531.7 743.2 C 503.30000000000007 739 526.7 697.3000000000001 562.6 694 C 598.5 690.7 607.6 694 607.6 694 L 608.1 701.5 z" stroke-linecap="round" />
</g>
		<g transform="matrix(1 0 0 1 -52.81 6.96)" id="_Yk6nFEWdnss7mQpjDDwF"  >
<path style="stroke: none; stroke-width: 1; stroke-dasharray: none; stroke-linecap: butt; stroke-dashoffset: 0; stroke-linejoin: miter; stroke-miterlimit: 4; fill: rgb(128,174,207); fill-rule: nonzero; opacity: 1;" vector-effect="non-scaling-stroke"  transform=" translate(-559.3, -708.76)" d="M 597.9 692.7 C 591.1 692.3000000000001 580 692.4000000000001 562.6 694 C 542.1 695.9 525.6 710.4 520.7 723.2 C 522.2 723.9000000000001 524 724.4000000000001 526.1 724.7 C 548.9 728.1 584.9 702.6 597.9 692.7 z" stroke-linecap="round" />
</g>
		<g transform="matrix(1 0 0 1 -78.25 -38.15)" id="nZlmStKqBVMul867IkcZz"  >
<path style="stroke: none; stroke-width: 1; stroke-dasharray: none; stroke-linecap: butt; stroke-dashoffset: 0; stroke-linejoin: miter; stroke-miterlimit: 4; fill: rgb(88,142,180); fill-rule: nonzero; opacity: 1;" vector-effect="non-scaling-stroke"  transform=" translate(-533.85, -663.65)" d="M 608 688.3 C 608.3 683.9 606.4 679.6999999999999 602.9 677 C 584 662.3 520.5 615.9 480.7 621.7 C 433.5 628.6 472.4 698 532 703.6 C 591.6 709.2 606.9 703.6 606.9 703.6 L 608 688.3 z" stroke-linecap="round" />
</g>
		<g transform="matrix(1 0 0 1 -68.97 -46.96)" id="_k6Dgg3wkb8JZxuj9mWUn"  >
<path style="stroke: none; stroke-width: 1; stroke-dasharray: none; stroke-linecap: butt; stroke-dashoffset: 0; stroke-linejoin: miter; stroke-miterlimit: 4; fill: rgb(128,174,207); fill-rule: nonzero; opacity: 1;" vector-effect="non-scaling-stroke"  transform=" translate(-543.14, -654.84)" d="M 480.8 621.7 C 480 621.8000000000001 479.2 622 478.40000000000003 622.1 C 475.70000000000005 645.2 507.8 682 550.6 686 C 578.4 688.6 596.5 688.8 608 688.2 L 608 688.2 C 608.3 683.8000000000001 606.4 679.6 602.9 676.9000000000001 C 584 662.3 520.5 615.9 480.8 621.7 z" stroke-linecap="round" />
</g>
		<g transform="matrix(1 0 0 1 48.51 16.22)" id="GOU0L3LHsyt5fe4w36ZYd"  >
<path style="stroke: none; stroke-width: 1; stroke-dasharray: none; stroke-linecap: butt; stroke-dashoffset: 0; stroke-linejoin: miter; stroke-miterlimit: 4; fill: rgb(88,142,180); fill-rule: nonzero; opacity: 1;" vector-effect="non-scaling-stroke"  transform=" translate(-660.62, -718.02)" d="M 616.1 701.5 C 615.9 705.2 617.5 708.9 620.5 711.1 C 633.4 721 669.5 746.6 692.5 743.2 C 720.9 739 697.5 697.3000000000001 661.6 694 C 625.7 690.7 616.6 694 616.6 694 L 616.1 701.5 z" stroke-linecap="round" />
</g>
		<g transform="matrix(1 0 0 1 52.79 6.96)" id="OrnuXbav70pjdYdFJN99S"  >
<path style="stroke: none; stroke-width: 1; stroke-dasharray: none; stroke-linecap: butt; stroke-dashoffset: 0; stroke-linejoin: miter; stroke-miterlimit: 4; fill: rgb(128,174,207); fill-rule: nonzero; opacity: 1;" vector-effect="non-scaling-stroke"  transform=" translate(-664.9, -708.76)" d="M 626.3 692.7 C 633.0999999999999 692.3000000000001 644.1999999999999 692.4000000000001 661.5999999999999 694 C 682.0999999999999 695.9 698.5999999999999 710.4 703.4999999999999 723.2 C 701.9999999999999 723.9000000000001 700.1999999999999 724.4000000000001 698.0999999999999 724.7 C 675.3 728.1 639.3 702.6 626.3 692.7 z" stroke-linecap="round" />
</g>
		<g transform="matrix(1 0 0 1 78.24 -38.15)" id="XR77TpkODoBIo1BiZS6fI"  >
<path style="stroke: none; stroke-width: 1; stroke-dasharray: none; stroke-linecap: butt; stroke-dashoffset: 0; stroke-linejoin: miter; stroke-miterlimit: 4; fill: rgb(88,142,180); fill-rule: nonzero; opacity: 1;" vector-effect="non-scaling-stroke"  transform=" translate(-690.35, -663.65)" d="M 616.2 688.3 C 615.9000000000001 683.9 617.8000000000001 679.6999999999999 621.3000000000001 677 C 640.2 662.3 703.7 615.9 743.5000000000001 621.7 C 790.7000000000002 628.6 751.8000000000001 698 692.2000000000002 703.6 C 632.6000000000003 709.2 617.3000000000002 703.6 617.3000000000002 703.6 L 616.2 688.3 z" stroke-linecap="round" />
</g>
		<g transform="matrix(1 0 0 1 68.96 -46.96)" id="-JdcKjDd3URkcqpm-HV1W"  >
<path style="stroke: none; stroke-width: 1; stroke-dasharray: none; stroke-linecap: butt; stroke-dashoffset: 0; stroke-linejoin: miter; stroke-miterlimit: 4; fill: rgb(128,174,207); fill-rule: nonzero; opacity: 1;" vector-effect="non-scaling-stroke"  transform=" translate(-681.06, -654.84)" d="M 743.4 621.7 C 744.1999999999999 621.8000000000001 745 622 745.8 622.1 C 748.5 645.2 716.4 682 673.5999999999999 686 C 645.8 688.6 627.6999999999999 688.8 616.1999999999999 688.2 L 616.1999999999999 688.2 C 615.9 683.8000000000001 617.8 679.6 621.3 676.9000000000001 C 640.2 662.3 703.6 615.9 743.4 621.7 z" stroke-linecap="round" />
</g>
</g>
</g>
</svg>