<?xml version="1.0" encoding="UTF-8" standalone="no" ?>
<!DOCTYPE svg PUBLIC "-//W3C//DTD SVG 1.1//EN" "http://www.w3.org/Graphics/SVG/1.1/DTD/svg11.dtd">
<svg xmlns="http://www.w3.org/2000/svg" xmlns:xlink="http://www.w3.org/1999/xlink" version="1.1" width="640" height="640" viewBox="0 0 640 640" xml:space="preserve">
<desc>Created with Fabric.js 4.6.0</desc>
<defs>
</defs>
<g transform="matrix(1.95 0 0 1.95 320 320)" id="0fXwddQTQqlqAZDC6Iis_"  >
<g style="" vector-effect="non-scaling-stroke"   >
		<g transform="matrix(1 0 0 1 -44.77 -81.19)" id="2_razTAjdM1tzbEAw8yX9"  >
<path style="stroke: none; stroke-width: 1; stroke-dasharray: none; stroke-linecap: butt; stroke-dashoffset: 0; stroke-linejoin: miter; stroke-miterlimit: 4; fill: rgb(92,75,81); fill-rule: nonzero; opacity: 1;" vector-effect="non-scaling-stroke"  transform=" translate(-1157.56, -232.61)" d="M 1191.4 253.4 C 1190.9 253.4 1190.5 253.3 1190.1000000000001 253 L 1167.3000000000002 238.8 L 1139.9 238.8 C 1139.1000000000001 238.8 1138.3000000000002 238.4 1137.9 237.8 L 1121.6000000000001 215.9 C 1120.8000000000002 214.8 1121.0000000000002 213.20000000000002 1122.1000000000001 212.3 C 1123.2 211.5 1124.8000000000002 211.70000000000002 1125.7 212.8 L 1141.2 233.70000000000002 L 1168.1000000000001 233.70000000000002 C 1168.6000000000001 233.70000000000002 1169.0000000000002 233.8 1169.4 234.10000000000002 L 1192.8000000000002 248.70000000000002 C 1194.0000000000002 249.4 1194.4 251.00000000000003 1193.6000000000001 252.20000000000002 C 1193.1 253 1192.3 253.4 1191.4 253.4 z" stroke-linecap="round" />
</g>
		<g transform="matrix(1 0 0 1 57.84 -81.21)" id="ptotWhFRJ6IHgPRPZVXeZ"  >
<path style="stroke: none; stroke-width: 1; stroke-dasharray: none; stroke-linecap: butt; stroke-dashoffset: 0; stroke-linejoin: miter; stroke-miterlimit: 4; fill: rgb(92,75,81); fill-rule: nonzero; opacity: 1;" vector-effect="non-scaling-stroke"  transform=" translate(-1260.18, -232.59)" d="M 1226.3 253.4 C 1225.5 253.4 1224.6 253 1224.1 252.20000000000002 C 1223.3999999999999 251.00000000000003 1223.6999999999998 249.4 1224.8999999999999 248.70000000000002 L 1248.3 234.10000000000002 C 1248.7 233.8 1249.2 233.70000000000002 1249.6 233.70000000000002 L 1276.5 233.70000000000002 L 1292 212.8 C 1292.8 211.70000000000002 1294.4 211.4 1295.6 212.3 C 1296.6999999999998 213.10000000000002 1297 214.70000000000002 1296.1 215.9 L 1279.8 237.8 C 1279.3 238.4 1278.6 238.8 1277.8 238.8 L 1250.3999999999999 238.8 L 1227.6 253 C 1227.3 253.3 1226.8 253.4 1226.3 253.4 z" stroke-linecap="round" />
</g>
		<g transform="matrix(1 0 0 1 -44.86 -30.59)" id="L19c7v2arViiQhe5USVSZ"  >
<path style="stroke: none; stroke-width: 1; stroke-dasharray: none; stroke-linecap: butt; stroke-dashoffset: 0; stroke-linejoin: miter; stroke-miterlimit: 4; fill: rgb(92,75,81); fill-rule: nonzero; opacity: 1;" vector-effect="non-scaling-stroke"  transform=" translate(-1157.48, -283.21)" d="M 1123.6 302 C 1123.1 302 1122.6 301.8 1122.1 301.5 C 1121 300.7 1120.6999999999998 299.1 1121.5 298 L 1137.8 275.3 C 1138.1 274.90000000000003 1138.5 274.6 1139 274.40000000000003 L 1167.1 264.6 C 1167.8 264.3 1168.6 264.40000000000003 1169.3 264.8 L 1192.7 279.40000000000003 C 1193.9 280.1 1194.3 281.70000000000005 1193.5 282.90000000000003 C 1192.8 284.1 1191.2 284.50000000000006 1190 283.70000000000005 L 1167.6 269.70000000000005 L 1141.3999999999999 278.90000000000003 L 1125.6 300.90000000000003 C 1125.2 301.6 1124.4 302 1123.6 302 z" stroke-linecap="round" />
</g>
		<g transform="matrix(1 0 0 1 57.92 -30.59)" id="0Uv8Ix9Wkqijc-nlVrgmn"  >
<path style="stroke: none; stroke-width: 1; stroke-dasharray: none; stroke-linecap: butt; stroke-dashoffset: 0; stroke-linejoin: miter; stroke-miterlimit: 4; fill: rgb(92,75,81); fill-rule: nonzero; opacity: 1;" vector-effect="non-scaling-stroke"  transform=" translate(-1260.25, -283.21)" d="M 1294.2 302 C 1293.4 302 1292.6000000000001 301.6 1292.1000000000001 300.9 L 1276.3000000000002 278.9 L 1250.1000000000001 269.7 L 1227.7 283.7 C 1226.5 284.4 1224.9 284.09999999999997 1224.2 282.9 C 1223.5 281.7 1223.8 280.09999999999997 1225 279.4 L 1248.4 264.79999999999995 C 1249.1000000000001 264.4 1249.9 264.29999999999995 1250.6000000000001 264.59999999999997 L 1278.7 274.4 C 1279.2 274.59999999999997 1279.6000000000001 274.9 1279.9 275.29999999999995 L 1296.2 297.99999999999994 C 1297 299.09999999999997 1296.8 300.69999999999993 1295.6000000000001 301.49999999999994 C 1295.2 301.8 1294.7 302 1294.2 302 z" stroke-linecap="round" />
</g>
		<g transform="matrix(1 0 0 1 -20.83 -112.85)" id="A_xWStwbhi4kGaUhW0_Us"  >
<path style="stroke: none; stroke-width: 1; stroke-dasharray: none; stroke-linecap: butt; stroke-dashoffset: 0; stroke-linejoin: miter; stroke-miterlimit: 4; fill: rgb(92,75,81); fill-rule: nonzero; opacity: 1;" vector-effect="non-scaling-stroke"  transform=" translate(-1181.51, -200.95)" d="M 1202.9 219.3 C 1202.1000000000001 219.3 1201.4 218.70000000000002 1201.3000000000002 217.9 C 1197.5000000000002 187.1 1160.3000000000002 186 1160.0000000000002 185.9 C 1159.1000000000001 185.9 1158.4000000000003 185.1 1158.4000000000003 184.20000000000002 C 1158.4000000000003 183.3 1159.2000000000003 182.60000000000002 1160.1000000000004 182.60000000000002 C 1160.5000000000005 182.60000000000002 1200.5000000000005 183.8 1204.6000000000004 217.40000000000003 C 1204.7000000000003 218.30000000000004 1204.1000000000004 219.10000000000002 1203.2000000000003 219.20000000000005 C 1203.1 219.3 1203 219.3 1202.9 219.3 z" stroke-linecap="round" />
</g>
		<g transform="matrix(1 0 0 1 34.06 -112.8)" id="sEsK3O6gDiPOx9WH54Ftv"  >
<path style="stroke: none; stroke-width: 1; stroke-dasharray: none; stroke-linecap: butt; stroke-dashoffset: 0; stroke-linejoin: miter; stroke-miterlimit: 4; fill: rgb(92,75,81); fill-rule: nonzero; opacity: 1;" vector-effect="non-scaling-stroke"  transform=" translate(-1236.39, -201)" d="M 1214.9 219.3 C 1214.8000000000002 219.3 1214.8000000000002 219.3 1214.7 219.3 C 1213.8 219.20000000000002 1213.2 218.4 1213.3 217.5 C 1217.3999999999999 183.9 1257.3999999999999 182.7 1257.8 182.7 C 1258.7 182.7 1259.5 183.39999999999998 1259.5 184.29999999999998 C 1259.5 185.2 1258.8 185.99999999999997 1257.9 185.99999999999997 C 1257.8000000000002 185.99999999999997 1248.3000000000002 186.29999999999998 1238.4 190.39999999999998 C 1225.5 195.79999999999998 1218.1000000000001 205.09999999999997 1216.5 217.99999999999997 C 1216.4 218.7 1215.7 219.3 1214.9 219.3 z" stroke-linecap="round" />
</g>
		<g transform="matrix(1 0 0 1 6.56 -75.2)" id="Jb6fnn6zxcrUyGR23cYpa"  >
<path style="stroke: none; stroke-width: 1; stroke-dasharray: none; stroke-linecap: butt; stroke-dashoffset: 0; stroke-linejoin: miter; stroke-miterlimit: 4; fill: rgb(102,87,93); fill-rule: nonzero; opacity: 1;" vector-effect="non-scaling-stroke"  transform=" translate(-29.5, -29.5)" d="M 0 29.5 C 0 13.2076 13.2076 0 29.5 0 C 45.7924 0 59 13.2076 59 29.5 C 59 45.7924 45.7924 59 29.5 59 C 13.2076 59 0 45.7924 0 29.5 z" stroke-linecap="round" />
</g>
		<g transform="matrix(1 0 0 1 -16.64 39.75)" id="jmZM6sbQRBpCJLjbNeo_q"  >
<path style="stroke: none; stroke-width: 1; stroke-dasharray: none; stroke-linecap: butt; stroke-dashoffset: 0; stroke-linejoin: miter; stroke-miterlimit: 4; fill: rgb(92,75,81); fill-rule: nonzero; opacity: 1;" vector-effect="non-scaling-stroke"  transform=" translate(-1185.7, -353.55)" d="M 1208.9 439.4 L 1177.7 416.7 C 1169.8 411 1165 401.9 1164.8 392.09999999999997 L 1162.5 267.69999999999993 L 1208.9 267.69999999999993 L 1208.9 439.4 z" stroke-linecap="round" />
</g>
		<g transform="matrix(1 0 0 1 29.76 39.75)" id="9fF0TORH11QWZ9zNvdKv3"  >
<path style="stroke: none; stroke-width: 1; stroke-dasharray: none; stroke-linecap: butt; stroke-dashoffset: 0; stroke-linejoin: miter; stroke-miterlimit: 4; fill: rgb(102,87,93); fill-rule: nonzero; opacity: 1;" vector-effect="non-scaling-stroke"  transform=" translate(-1232.1, -353.55)" d="M 1208.9 439.4 L 1240.1000000000001 416.7 C 1248.0000000000002 411 1252.8000000000002 401.9 1253.0000000000002 392.09999999999997 L 1255.3000000000002 267.69999999999993 L 1208.9 267.69999999999993 L 1208.9 439.4 z" stroke-linecap="round" />
</g>
		<g transform="matrix(1 0 0 1 6.66 -45.6)" id="IaycsKnuc3WMOl7NElCZw"  >
<path style="stroke: none; stroke-width: 1; stroke-dasharray: none; stroke-linecap: butt; stroke-dashoffset: 0; stroke-linejoin: miter; stroke-miterlimit: 4; fill: rgb(84,68,74); fill-rule: nonzero; opacity: 1;" vector-effect="non-scaling-stroke"  transform=" translate(-1209, -268.2)" d="M 1222.1 293.6 L 1195.8 293.6 C 1174.5 293.6 1157.3 276.40000000000003 1157.3 255.10000000000002 L 1157.3 255.10000000000002 C 1157.3 248.3 1162.8 242.8 1169.6 242.8 L 1248.3999999999999 242.8 C 1255.1999999999998 242.8 1260.6999999999998 248.3 1260.6999999999998 255.10000000000002 L 1260.6999999999998 255.10000000000002 C 1260.6 276.3 1243.3 293.6 1222.1 293.6 z" stroke-linecap="round" />
</g>
		<g transform="matrix(1 0 0 1 -94.34 -76.7)" id="D08XToannRfxqJRSha2j-"  >
<path style="stroke: none; stroke-width: 1; stroke-dasharray: none; stroke-linecap: butt; stroke-dashoffset: 0; stroke-linejoin: miter; stroke-miterlimit: 4; fill: rgb(204,217,206); fill-rule: nonzero; opacity: 1;" vector-effect="non-scaling-stroke"  transform=" translate(-1108, -237.1)" d="M 1108 237.1" stroke-linecap="round" />
</g>
		<g transform="matrix(1 0 0 1 -40.75 39.35)" id="abh70fIbdQ8_5aAKgJRxq"  >
<path style="stroke: none; stroke-width: 1; stroke-dasharray: none; stroke-linecap: butt; stroke-dashoffset: 0; stroke-linejoin: miter; stroke-miterlimit: 4; fill: rgb(204,217,206); fill-rule: nonzero; opacity: 1;" vector-effect="non-scaling-stroke"  transform=" translate(-1161.59, -353.15)" d="M 1157.9 261.4 C 1157.9 261.4 1107.9 346.79999999999995 1129.9 444.9 C 1129.9 444.9 1167.2 442.4 1189.9 406.4 C 1197.1000000000001 394.9 1200.1000000000001 381.2 1198.4 367.7 C 1195.2 342.4 1185.7 294.5 1157.9 261.4 z" stroke-linecap="round" />
</g>
		<g transform="matrix(1 0 0 1 -51.93 39.45)" id="Vb1DZXgtE90oIhLY8THIw"  >
<path style="stroke: none; stroke-width: 1; stroke-dasharray: none; stroke-linecap: butt; stroke-dashoffset: 0; stroke-linejoin: miter; stroke-miterlimit: 4; fill: rgb(183,196,184); fill-rule: nonzero; opacity: 1;" vector-effect="non-scaling-stroke"  transform=" translate(-1150.4, -353.25)" d="M 1176.6 290.8 C 1171.5 280.40000000000003 1165.3999999999999 270.40000000000003 1157.8 261.5 C 1157.8 261.5 1107.8 346.9 1129.8 445 C 1129.8 445 1144 444 1160.1 434.9 C 1149.7 375.7 1164.4 322.3 1176.6 290.8 z" stroke-linecap="round" />
</g>
		<g transform="matrix(1 0 0 1 53.88 39.35)" id="TuWeJ2uzhuXVdW7W5JhUv"  >
<path style="stroke: none; stroke-width: 1; stroke-dasharray: none; stroke-linecap: butt; stroke-dashoffset: 0; stroke-linejoin: miter; stroke-miterlimit: 4; fill: rgb(204,217,206); fill-rule: nonzero; opacity: 1;" vector-effect="non-scaling-stroke"  transform=" translate(-1256.21, -353.15)" d="M 1259.9 261.4 C 1259.9 261.4 1309.9 346.79999999999995 1287.9 444.9 C 1287.9 444.9 1250.6000000000001 442.4 1227.9 406.4 C 1220.7 394.9 1217.7 381.2 1219.4 367.7 C 1222.6 342.4 1232.1 294.5 1259.9 261.4 z" stroke-linecap="round" />
</g>
		<g transform="matrix(1 0 0 1 64.96 39.45)" id="gKDN7eblDgWp2UsXnLeH-"  >
<path style="stroke: none; stroke-width: 1; stroke-dasharray: none; stroke-linecap: butt; stroke-dashoffset: 0; stroke-linejoin: miter; stroke-miterlimit: 4; fill: rgb(183,196,184); fill-rule: nonzero; opacity: 1;" vector-effect="non-scaling-stroke"  transform=" translate(-1267.3, -353.25)" d="M 1241.1 290.8 C 1246.1999999999998 280.40000000000003 1252.3 270.40000000000003 1259.8999999999999 261.5 C 1259.8999999999999 261.5 1309.8999999999999 346.9 1287.8999999999999 445 C 1287.8999999999999 445 1273.6999999999998 444 1257.6 434.9 C 1268.1 375.7 1253.4 322.3 1241.1 290.8 z" stroke-linecap="round" />
</g>
</g>
</g>
</svg>