<?xml version="1.0" encoding="UTF-8" standalone="no" ?>
<!DOCTYPE svg PUBLIC "-//W3C//DTD SVG 1.1//EN" "http://www.w3.org/Graphics/SVG/1.1/DTD/svg11.dtd">
<svg xmlns="http://www.w3.org/2000/svg" xmlns:xlink="http://www.w3.org/1999/xlink" version="1.1" width="640" height="640" viewBox="0 0 640 640" xml:space="preserve">
<desc>Created with Fabric.js 4.6.0</desc>
<defs>
</defs>
<g transform="matrix(1.95 0 0 1.95 320 320)" id="vRk9gGnLDUxMJcPWnH5uj"  >
<g style="" vector-effect="non-scaling-stroke"   >
		<g transform="matrix(1 0 0 1 -40 -54.01)" id="Nu-A99MCvay-gJ-vcADJh"  >
<path style="stroke: none; stroke-width: 1; stroke-dasharray: none; stroke-linecap: butt; stroke-dashoffset: 0; stroke-linejoin: miter; stroke-miterlimit: 4; fill: rgb(92,75,81); fill-rule: nonzero; opacity: 1;" vector-effect="non-scaling-stroke"  transform=" translate(-1162.34, -636.24)" d="M 1189.8 653.1 C 1189.3999999999999 653.1 1189.1 653 1188.7 652.8000000000001 L 1170.2 641.3000000000001 L 1148 641.3000000000001 C 1147.4 641.3000000000001 1146.7 641.0000000000001 1146.4 640.5000000000001 L 1133.2 622.7000000000002 C 1132.5 621.8000000000002 1132.7 620.5000000000001 1133.6000000000001 619.8000000000002 C 1134.5000000000002 619.1000000000001 1135.8000000000002 619.3000000000002 1136.5000000000002 620.2000000000002 L 1149.1000000000001 637.1000000000001 L 1170.8000000000002 637.1000000000001 C 1171.2000000000003 637.1000000000001 1171.6000000000001 637.2000000000002 1171.9 637.4000000000001 L 1190.9 649.2 C 1191.9 649.8000000000001 1192.2 651.1 1191.6000000000001 652 C 1191.1 652.7 1190.4 653.1 1189.8 653.1 z" stroke-linecap="round" />
</g>
		<g transform="matrix(1 0 0 1 40.21 -53.96)" id="pYxfdqjQv1Zv_iTeNJbu3"  >
<path style="stroke: none; stroke-width: 1; stroke-dasharray: none; stroke-linecap: butt; stroke-dashoffset: 0; stroke-linejoin: miter; stroke-miterlimit: 4; fill: rgb(92,75,81); fill-rule: nonzero; opacity: 1;" vector-effect="non-scaling-stroke"  transform=" translate(-1242.56, -636.29)" d="M 1215 653.1 C 1214.3 653.1 1213.6 652.8000000000001 1213.3 652.1 C 1212.7 651.1 1213 649.9 1214 649.3000000000001 L 1233 637.5000000000001 C 1233.3 637.3000000000001 1233.7 637.2000000000002 1234.1 637.2000000000002 L 1255.8 637.2000000000002 L 1268.3999999999999 620.3000000000002 C 1269.1 619.4000000000002 1270.3999999999999 619.2000000000002 1271.3 619.9000000000002 C 1272.2 620.6000000000003 1272.3999999999999 621.9000000000002 1271.7 622.8000000000002 L 1258.5 640.6000000000001 C 1258.1 641.1000000000001 1257.5 641.4000000000001 1256.9 641.4000000000001 L 1234.7 641.4000000000001 L 1216.2 652.9000000000001 C 1215.7 653 1215.3 653.1 1215 653.1 z" stroke-linecap="round" />
</g>
		<g transform="matrix(1 0 0 1 -38.16 57.1)" id="oIP5eS_zxFVM46BSOrCRd"  >
<path style="stroke: none; stroke-width: 1; stroke-dasharray: none; stroke-linecap: butt; stroke-dashoffset: 0; stroke-linejoin: miter; stroke-miterlimit: 4; fill: rgb(92,75,81); fill-rule: nonzero; opacity: 1;" vector-effect="non-scaling-stroke"  transform=" translate(-1164.19, -747.35)" d="M 1128.7 784.7 C 1127.8 784.7 1127 784.2 1126.8 783.3000000000001 C 1126.3999999999999 782.2 1127 781.1 1128.1 780.7 L 1142 776 L 1156.5 724.7 C 1156.7 723.8000000000001 1157.6 723.2 1158.5 723.2 L 1177.9 723.2 L 1198.6000000000001 710.3000000000001 C 1199.6000000000001 709.7 1200.8000000000002 710.0000000000001 1201.4 711.0000000000001 C 1202 712.0000000000001 1201.7 713.2000000000002 1200.7 713.8000000000001 L 1179.5 727.0000000000001 C 1179.2 727.2000000000002 1178.8 727.3000000000001 1178.4 727.3000000000001 L 1160 727.3000000000001 L 1145.6 778.1 C 1145.3999999999999 778.8000000000001 1144.8999999999999 779.3000000000001 1144.3 779.5 L 1129.3999999999999 784.6 C 1129.1 784.7 1128.9 784.7 1128.7 784.7 z" stroke-linecap="round" />
</g>
		<g transform="matrix(1 0 0 1 38.24 57.1)" id="77oT-eP2fkz7s9Sx-7EVM"  >
<path style="stroke: none; stroke-width: 1; stroke-dasharray: none; stroke-linecap: butt; stroke-dashoffset: 0; stroke-linejoin: miter; stroke-miterlimit: 4; fill: rgb(92,75,81); fill-rule: nonzero; opacity: 1;" vector-effect="non-scaling-stroke"  transform=" translate(-1240.59, -747.35)" d="M 1276 784.7 C 1275.8 784.7 1275.6 784.7 1275.3 784.6 L 1260.3999999999999 779.5 C 1259.8 779.3 1259.3 778.8 1259.1 778.1 L 1244.8 727.3000000000001 L 1226.3999999999999 727.3000000000001 C 1225.9999999999998 727.3000000000001 1225.6 727.2 1225.3 727.0000000000001 L 1204.1 713.8000000000001 C 1203.1 713.2 1202.8 711.9000000000001 1203.3999999999999 711.0000000000001 C 1203.9999999999998 710.0000000000001 1205.3 709.7000000000002 1206.1999999999998 710.3000000000001 L 1226.8999999999999 723.2 L 1246.3 723.2 C 1247.2 723.2 1248 723.8000000000001 1248.3 724.7 L 1262.8 776 L 1276.7 780.7 C 1277.8 781.1 1278.3 782.2 1278 783.3000000000001 C 1277.7 784.2 1276.9 784.7 1276 784.7 z" stroke-linecap="round" />
</g>
		<g transform="matrix(1 0 0 1 -44.61 14.86)" id="g9OvSgL0UhXG6Q3-Diugk"  >
<path style="stroke: none; stroke-width: 1; stroke-dasharray: none; stroke-linecap: butt; stroke-dashoffset: 0; stroke-linejoin: miter; stroke-miterlimit: 4; fill: rgb(92,75,81); fill-rule: nonzero; opacity: 1;" vector-effect="non-scaling-stroke"  transform=" translate(-1157.74, -705.11)" d="M 1114.2 732.8 C 1113.4 732.5999999999999 1112.7 731.9 1112.7 731 C 1112.6000000000001 729.9 1113.4 728.9 1114.6000000000001 728.8 L 1129.3000000000002 727.5999999999999 L 1155.7000000000003 681.3 C 1156.2000000000003 680.5 1157.1000000000004 680.0999999999999 1158.0000000000002 680.3 L 1176.8000000000002 685 L 1200.1000000000001 677.5 C 1201.2 677.2 1202.3000000000002 677.7 1202.7 678.8 C 1203 679.9 1202.5 681 1201.4 681.4 L 1177.6000000000001 689.1 C 1177.2 689.2 1176.8000000000002 689.2 1176.5000000000002 689.1 L 1158.6000000000001 684.6 L 1132.4 730.4 C 1132.1000000000001 731 1131.5 731.4 1130.8000000000002 731.4 L 1115.1000000000001 732.6999999999999 C 1114.7 732.8 1114.4 732.8 1114.2 732.8 z" stroke-linecap="round" />
</g>
		<g transform="matrix(1 0 0 1 44.61 14.86)" id="MnPGZqlG77mVyRFC2L9To"  >
<path style="stroke: none; stroke-width: 1; stroke-dasharray: none; stroke-linecap: butt; stroke-dashoffset: 0; stroke-linejoin: miter; stroke-miterlimit: 4; fill: rgb(92,75,81); fill-rule: nonzero; opacity: 1;" vector-effect="non-scaling-stroke"  transform=" translate(-1246.96, -705.11)" d="M 1290.5 732.8 C 1291.3 732.5999999999999 1292 731.9 1292 731 C 1292.1 729.9 1291.3 728.9 1290.1 728.8 L 1275.3999999999999 727.5999999999999 L 1248.9999999999998 681.3 C 1248.4999999999998 680.5 1247.5999999999997 680.0999999999999 1246.6999999999998 680.3 L 1227.8999999999999 685 L 1204.6 677.5 C 1203.5 677.2 1202.3999999999999 677.7 1202 678.8 C 1201.7 679.9 1202.2 681 1203.3 681.4 L 1227.1 689.1 C 1227.5 689.2 1227.8999999999999 689.2 1228.1999999999998 689.1 L 1246.1 684.6 L 1272.3 730.4 C 1272.6 731 1273.2 731.4 1273.8999999999999 731.4 L 1289.6 732.6999999999999 C 1290 732.8 1290.3 732.8 1290.5 732.8 z" stroke-linecap="round" />
</g>
		<g transform="matrix(1 0 0 1 -30.86 -101.3)" id="DuZ3_zmbZpLWaHX41B2o-"  >
<path style="stroke: none; stroke-width: 1; stroke-dasharray: none; stroke-linecap: butt; stroke-dashoffset: 0; stroke-linejoin: miter; stroke-miterlimit: 4; fill: rgb(102,87,93); fill-rule: nonzero; opacity: 1;" vector-effect="non-scaling-stroke"  transform=" translate(-1171.49, -588.95)" d="M 1196 627.9 L 1164.5 585 C 1158.8 577.2 1160 566.6 1167.2 560.2 L 1177.9 550.7 C 1178.4 550.3000000000001 1178.8000000000002 549.8000000000001 1179.1000000000001 549.2 C 1174.8000000000002 550.5 1171.1000000000001 550.1 1170.1000000000001 548.1 C 1169.2 546.3000000000001 1170.5000000000002 543.6 1173.3000000000002 541.1 C 1172.3000000000002 541.3000000000001 1171.4 541.7 1170.6000000000001 542.4 L 1159.9 551.9 C 1154.3000000000002 556.9 1151 563.5 1150.1000000000001 570.4 L 1145.9 568.3 C 1146.8000000000002 581.8 1155.6000000000001 591.5999999999999 1155.6000000000001 591.5999999999999 L 1187.1000000000001 634.4999999999999 C 1188.2 635.9999999999999 1189.9 636.7999999999998 1191.6000000000001 636.7999999999998 C 1192.7 636.7999999999998 1193.9 636.3999999999999 1194.9 635.6999999999998 C 1197.3 633.9 1197.8 630.4 1196 627.9 z" stroke-linecap="round" />
</g>
		<g transform="matrix(1 0 0 1 30.86 -101.3)" id="bb6nyO_EBYwKv3aOLzVZv"  >
<path style="stroke: none; stroke-width: 1; stroke-dasharray: none; stroke-linecap: butt; stroke-dashoffset: 0; stroke-linejoin: miter; stroke-miterlimit: 4; fill: rgb(102,87,93); fill-rule: nonzero; opacity: 1;" vector-effect="non-scaling-stroke"  transform=" translate(-1233.21, -588.95)" d="M 1208.7 627.9 L 1240.2 585 C 1245.9 577.2 1244.7 566.6 1237.5 560.2 L 1226.8 550.7 C 1226.3 550.3000000000001 1225.8999999999999 549.8000000000001 1225.6 549.2 C 1229.8999999999999 550.5 1233.6 550.1 1234.6 548.1 C 1235.5 546.3000000000001 1234.1999999999998 543.6 1231.3999999999999 541.1 C 1232.3999999999999 541.3000000000001 1233.3 541.7 1234.1 542.4 L 1244.8 551.9 C 1250.3999999999999 556.9 1253.7 563.5 1254.6 570.4 L 1258.8 568.3 C 1257.8999999999999 581.8 1249.1 591.5999999999999 1249.1 591.5999999999999 L 1217.6 634.4999999999999 C 1216.5 635.9999999999999 1214.8 636.7999999999998 1213.1 636.7999999999998 C 1212 636.7999999999998 1210.8 636.3999999999999 1209.8 635.6999999999998 C 1207.4 633.9 1206.9 630.4 1208.7 627.9 z" stroke-linecap="round" />
</g>
		<g transform="matrix(1 0 0 1 0.05 65.8)" id="4v2PyMGRD-fv4Jws5oOFO"  >
<path style="stroke: none; stroke-width: 1; stroke-dasharray: none; stroke-linecap: butt; stroke-dashoffset: 0; stroke-linejoin: miter; stroke-miterlimit: 4; fill: rgb(92,75,81); fill-rule: nonzero; opacity: 1;" vector-effect="non-scaling-stroke"  transform=" translate(-1202.4, -756.05)" d="M 1251.7 755.7 C 1251.7 801.7 1229.6000000000001 839.4000000000001 1202.4 839.4000000000001 C 1175.2 839.4000000000001 1153.1000000000001 801.8000000000001 1153.1000000000001 755.7 C 1153.1000000000001 709.6 1175.2 672.7 1202.4 672.7 C 1229.6 672.7 1251.7 709.7 1251.7 755.7 z" stroke-linecap="round" />
</g>
		<g transform="matrix(1 0 0 1 0 -19)" id="UTWqZBTmwLCuBmXiCH_YV"  >
<path style="stroke: none; stroke-width: 1; stroke-dasharray: none; stroke-linecap: butt; stroke-dashoffset: 0; stroke-linejoin: miter; stroke-miterlimit: 4; fill: rgb(102,87,93); fill-rule: nonzero; opacity: 1;" vector-effect="non-scaling-stroke"  transform=" translate(-1202.35, -671.25)" d="M 1212.9 691.8 L 1191.8000000000002 691.8 C 1183.1000000000001 691.8 1176.1000000000001 684.8 1176.1000000000001 676.0999999999999 L 1176.1000000000001 666.3999999999999 C 1176.1000000000001 657.6999999999998 1183.1000000000001 650.6999999999998 1191.8000000000002 650.6999999999998 L 1212.9 650.6999999999998 C 1221.6000000000001 650.6999999999998 1228.6000000000001 657.6999999999998 1228.6000000000001 666.3999999999999 L 1228.6000000000001 676.0999999999999 C 1228.7 684.8 1221.6 691.8 1212.9 691.8 z" stroke-linecap="round" />
</g>
		<g transform="matrix(1 0 0 1 0 -53.8)" id="SmcM8c9RSNp4X8Ys3W84z"  >
<path style="stroke: none; stroke-width: 1; stroke-dasharray: none; stroke-linecap: butt; stroke-dashoffset: 0; stroke-linejoin: miter; stroke-miterlimit: 4; fill: rgb(92,75,81); fill-rule: nonzero; opacity: 1;" vector-effect="non-scaling-stroke"  transform=" translate(-1202.35, -636.45)" d="M 1212.9 657 L 1191.8000000000002 657 C 1183.1000000000001 657 1176.1000000000001 650 1176.1000000000001 641.3 L 1176.1000000000001 631.5999999999999 C 1176.1000000000001 622.8999999999999 1183.1000000000001 615.8999999999999 1191.8000000000002 615.8999999999999 L 1212.9 615.8999999999999 C 1221.6000000000001 615.8999999999999 1228.6000000000001 622.8999999999999 1228.6000000000001 631.5999999999999 L 1228.6000000000001 641.3 C 1228.7 649.9 1221.6 657 1212.9 657 z" stroke-linecap="round" />
</g>
		<g transform="matrix(1 0 0 1 -27 82.55)" id="71F_7pKi6Y6AltfV8DhuI"  >
<path style="stroke: none; stroke-width: 1; stroke-dasharray: none; stroke-linecap: butt; stroke-dashoffset: 0; stroke-linejoin: miter; stroke-miterlimit: 4; fill: rgb(242,199,119); fill-rule: nonzero; opacity: 1;" vector-effect="non-scaling-stroke"  transform=" translate(-1175.35, -772.8)" d="M 1153 755.7 C 1153 799.1 1172.6 835 1197.7 839 L 1197.7 739.2 L 1162.6000000000001 706.6 C 1156.6 720.3 1153 737.3 1153 755.7 z" stroke-linecap="round" />
</g>
		<g transform="matrix(1 0 0 1 27 82.55)" id="mq7mp4IR-R-IiAcISwEUx"  >
<path style="stroke: none; stroke-width: 1; stroke-dasharray: none; stroke-linecap: butt; stroke-dashoffset: 0; stroke-linejoin: miter; stroke-miterlimit: 4; fill: rgb(242,199,119); fill-rule: nonzero; opacity: 1;" vector-effect="non-scaling-stroke"  transform=" translate(-1229.35, -772.8)" d="M 1207 739.2 L 1207 839 C 1232 835 1251.7 799.1 1251.7 755.7 C 1251.7 737.3000000000001 1248.2 720.3000000000001 1242.2 706.6 L 1207 739.2 z" stroke-linecap="round" />
</g>
</g>
</g>
</svg>