<?xml version="1.0" encoding="UTF-8" standalone="no" ?>
<!DOCTYPE svg PUBLIC "-//W3C//DTD SVG 1.1//EN" "http://www.w3.org/Graphics/SVG/1.1/DTD/svg11.dtd">
<svg xmlns="http://www.w3.org/2000/svg" xmlns:xlink="http://www.w3.org/1999/xlink" version="1.1" width="640" height="640" viewBox="0 0 640 640" xml:space="preserve">
<desc>Created with Fabric.js 4.6.0</desc>
<defs>
</defs>
<g transform="matrix(1.95 0 0 1.95 320 320)" id="5ntEBSZlrJdAV78iL0kob"  >
<g style="" vector-effect="non-scaling-stroke"   >
		<g transform="matrix(1 0 0 1 -38.18 -57.29)" id="WIQNlWIUJJxKbrE34wPkQ"  >
<path style="stroke: none; stroke-width: 1; stroke-dasharray: none; stroke-linecap: butt; stroke-dashoffset: 0; stroke-linejoin: miter; stroke-miterlimit: 4; fill: rgb(92,75,81); fill-rule: nonzero; opacity: 1;" vector-effect="non-scaling-stroke"  transform=" translate(-226.12, -636.76)" d="M 252.3 652.8 C 251.9 652.8 251.60000000000002 652.6999999999999 251.3 652.5 L 233.70000000000002 641.5 L 212.60000000000002 641.5 C 212.00000000000003 641.5 211.40000000000003 641.2 211.00000000000003 640.7 L 198.40000000000003 623.8000000000001 C 197.80000000000004 622.9000000000001 197.90000000000003 621.7 198.80000000000004 621.1 C 199.70000000000005 620.5 200.90000000000003 620.6 201.50000000000003 621.5 L 213.50000000000003 637.6 L 234.20000000000002 637.6 C 234.60000000000002 637.6 234.9 637.7 235.20000000000002 637.9 L 253.3 649.1999999999999 C 254.20000000000002 649.8 254.5 650.9999999999999 253.9 651.9 C 253.6 652.4 253 652.8 252.3 652.8 z" stroke-linecap="round" />
</g>
		<g transform="matrix(1 0 0 1 38.09 -57.29)" id="brjP1J7ziKOCc_5V9-ZHX"  >
<path style="stroke: none; stroke-width: 1; stroke-dasharray: none; stroke-linecap: butt; stroke-dashoffset: 0; stroke-linejoin: miter; stroke-miterlimit: 4; fill: rgb(92,75,81); fill-rule: nonzero; opacity: 1;" vector-effect="non-scaling-stroke"  transform=" translate(-302.38, -636.76)" d="M 276.3 652.8 C 275.6 652.8 275 652.5 274.6 651.9 C 274 651 274.3 649.8 275.20000000000005 649.1999999999999 L 293.30000000000007 637.9 C 293.6000000000001 637.6999999999999 294.00000000000006 637.6 294.30000000000007 637.6 L 315.00000000000006 637.6 L 327.00000000000006 621.5 C 327.6000000000001 620.6 328.90000000000003 620.5 329.70000000000005 621.1 C 330.6 621.7 330.70000000000005 623 330.1 623.8000000000001 L 317.5 640.7 C 317.1 641.2 316.5 641.5 315.9 641.5 L 295 641.5 L 277.4 652.5 C 277 652.7 276.7 652.8 276.3 652.8 z" stroke-linecap="round" />
</g>
		<g transform="matrix(1 0 0 1 -36.38 28.84)" id="7MenkMO95Ox6C1IlzFo8h"  >
<path style="stroke: none; stroke-width: 1; stroke-dasharray: none; stroke-linecap: butt; stroke-dashoffset: 0; stroke-linejoin: miter; stroke-miterlimit: 4; fill: rgb(92,75,81); fill-rule: nonzero; opacity: 1;" vector-effect="non-scaling-stroke"  transform=" translate(-227.91, -722.89)" d="M 194.1 758.5 C 193.29999999999998 758.5 192.5 758 192.2 757.2 C 191.89999999999998 756.2 192.39999999999998 755.1 193.39999999999998 754.7 L 206.7 750.2 L 220.5 701.3000000000001 C 220.7 700.5000000000001 221.5 699.9000000000001 222.4 699.9000000000001 L 240.9 699.9000000000001 L 260.7 687.6000000000001 C 261.59999999999997 687.0000000000001 262.8 687.3000000000002 263.4 688.2000000000002 C 264 689.1000000000001 263.7 690.3000000000002 262.79999999999995 690.9000000000002 L 242.49999999999994 703.5000000000002 C 242.19999999999993 703.7000000000003 241.79999999999995 703.8000000000002 241.49999999999994 703.8000000000002 L 223.89999999999995 703.8000000000002 L 210.19999999999996 752.3000000000002 C 209.99999999999997 752.9000000000002 209.59999999999997 753.4000000000002 208.89999999999995 753.6000000000001 L 194.69999999999996 758.4000000000001 C 194.5 758.5 194.3 758.5 194.1 758.5 z" stroke-linecap="round" />
</g>
		<g transform="matrix(1 0 0 1 36.51 28.84)" id="6Un9ZWJK8MkXaHgkfBZIi"  >
<path style="stroke: none; stroke-width: 1; stroke-dasharray: none; stroke-linecap: butt; stroke-dashoffset: 0; stroke-linejoin: miter; stroke-miterlimit: 4; fill: rgb(92,75,81); fill-rule: nonzero; opacity: 1;" vector-effect="non-scaling-stroke"  transform=" translate(-300.81, -722.89)" d="M 334.6 758.5 C 334.40000000000003 758.5 334.20000000000005 758.5 334 758.4 L 319.8 753.6 C 319.2 753.4 318.7 752.9 318.5 752.3000000000001 L 304.8 703.8000000000001 L 287.2 703.8000000000001 C 286.8 703.8000000000001 286.5 703.7 286.2 703.5000000000001 L 265.9 690.9000000000001 C 265 690.3000000000001 264.7 689.1000000000001 265.29999999999995 688.2 C 265.9 687.3000000000001 267.09999999999997 687 267.99999999999994 687.6 L 287.79999999999995 699.9 L 306.29999999999995 699.9 C 307.19999999999993 699.9 307.9 700.5 308.19999999999993 701.3 L 321.99999999999994 750.1999999999999 L 335.29999999999995 754.6999999999999 C 336.29999999999995 754.9999999999999 336.9 756.1999999999999 336.49999999999994 757.1999999999999 C 336.1 758 335.4 758.5 334.6 758.5 z" stroke-linecap="round" />
</g>
		<g transform="matrix(1 0 0 1 -42.56 8.36)" id="mv9wrf4DNRizXCM8oKFog"  >
<path style="stroke: none; stroke-width: 1; stroke-dasharray: none; stroke-linecap: butt; stroke-dashoffset: 0; stroke-linejoin: miter; stroke-miterlimit: 4; fill: rgb(92,75,81); fill-rule: nonzero; opacity: 1;" vector-effect="non-scaling-stroke"  transform=" translate(-221.74, -702.41)" d="M 180.3 728.7 C 179.5 728.5 178.9 727.8000000000001 178.8 727 C 178.70000000000002 725.9 179.5 725 180.60000000000002 724.9 L 194.60000000000002 723.6999999999999 L 219.8 679.5999999999999 C 220.20000000000002 678.8 221.10000000000002 678.4999999999999 222 678.6999999999999 L 239.9 683.1999999999999 L 262.1 675.9999999999999 C 263.1 675.6999999999999 264.20000000000005 676.1999999999999 264.6 677.2999999999998 C 264.90000000000003 678.2999999999998 264.40000000000003 679.3999999999999 263.3 679.7999999999998 L 240.60000000000002 687.1999999999998 C 240.3 687.2999999999998 239.90000000000003 687.2999999999998 239.50000000000003 687.1999999999998 L 222.40000000000003 682.8999999999999 L 197.40000000000003 726.5999999999999 C 197.10000000000002 727.1999999999999 196.50000000000003 727.4999999999999 195.90000000000003 727.5999999999999 L 180.90000000000003 728.8999999999999 C 180.7 728.8 180.5 728.8 180.3 728.7 z" stroke-linecap="round" />
</g>
		<g transform="matrix(1 0 0 1 42.56 8.36)" id="xoGtSnWa95D8InJQ7Sd73"  >
<path style="stroke: none; stroke-width: 1; stroke-dasharray: none; stroke-linecap: butt; stroke-dashoffset: 0; stroke-linejoin: miter; stroke-miterlimit: 4; fill: rgb(92,75,81); fill-rule: nonzero; opacity: 1;" vector-effect="non-scaling-stroke"  transform=" translate(-306.86, -702.41)" d="M 348.3 728.7 C 349.1 728.5 349.7 727.8000000000001 349.8 727 C 349.90000000000003 725.9 349.1 725 348 724.9 L 334 723.6999999999999 L 308.8 679.5999999999999 C 308.40000000000003 678.8 307.5 678.4999999999999 306.6 678.6999999999999 L 288.70000000000005 683.1999999999999 L 266.50000000000006 675.9999999999999 C 265.50000000000006 675.6999999999999 264.40000000000003 676.1999999999999 264.00000000000006 677.2999999999998 C 263.70000000000005 678.2999999999998 264.20000000000005 679.3999999999999 265.30000000000007 679.7999999999998 L 288.00000000000006 687.1999999999998 C 288.30000000000007 687.2999999999998 288.70000000000005 687.2999999999998 289.1000000000001 687.1999999999998 L 306.2000000000001 682.8999999999999 L 331.2000000000001 726.5999999999999 C 331.5000000000001 727.1999999999999 332.1000000000001 727.4999999999999 332.7000000000001 727.5999999999999 L 347.7000000000001 728.8999999999999 C 347.9 728.8 348.1 728.8 348.3 728.7 z" stroke-linecap="round" />
</g>
		<g transform="matrix(1 0 0 1 -14.01 -86.84)" id="yugrABJJDc6o9vf197drL"  >
<path style="stroke: none; stroke-width: 1; stroke-dasharray: none; stroke-linecap: butt; stroke-dashoffset: 0; stroke-linejoin: miter; stroke-miterlimit: 4; fill: rgb(92,75,81); fill-rule: nonzero; opacity: 1;" vector-effect="non-scaling-stroke"  transform=" translate(-250.29, -607.21)" d="M 259.4 615.8 C 258.7 615.8 258.09999999999997 615.3 258.09999999999997 614.5999999999999 C 257.9 609.8 256.4 606.3 253.59999999999997 603.9999999999999 C 248.69999999999996 600.0999999999999 241.39999999999998 601.3999999999999 241.39999999999998 601.3999999999999 C 240.7 601.4999999999999 239.99999999999997 601.0999999999999 239.89999999999998 600.3999999999999 C 239.79999999999998 599.6999999999998 240.2 598.9999999999999 240.89999999999998 598.8999999999999 C 241.2 598.7999999999998 249.39999999999998 597.3999999999999 255.2 602.0999999999999 C 258.59999999999997 604.8 260.5 608.9999999999999 260.7 614.5999999999999 C 260.7 615.2 260.2 615.8 259.4 615.8 C 259.4 615.8 259.4 615.8 259.4 615.8 z" stroke-linecap="round" />
</g>
		<g transform="matrix(1 0 0 1 14.12 -86.9)" id="-h0S1owJQktokbzdniXSO"  >
<path style="stroke: none; stroke-width: 1; stroke-dasharray: none; stroke-linecap: butt; stroke-dashoffset: 0; stroke-linejoin: miter; stroke-miterlimit: 4; fill: rgb(92,75,81); fill-rule: nonzero; opacity: 1;" vector-effect="non-scaling-stroke"  transform=" translate(-278.42, -607.15)" d="M 269.3 615.8 C 269.2 615.8 269.2 615.8 269.3 615.8 C 268.5 615.8 268 615.1999999999999 268 614.4 C 268.2 608.8 270.1 604.6 273.5 601.9 C 279.3 597.3 287.5 598.6999999999999 287.8 598.6999999999999 C 288.5 598.8 289 599.4999999999999 288.8 600.1999999999999 C 288.7 600.9 288 601.4 287.3 601.1999999999999 C 287.2 601.1999999999999 279.90000000000003 599.9 275.1 603.8 C 272.3 606 270.8 609.5999999999999 270.6 614.4 C 270.5 615.3 269.9 615.8 269.3 615.8 z" stroke-linecap="round" />
</g>
		<g transform="matrix(1 0 0 1 0 43.75)" id="VpvaDwWJhc6Zv0NnqpM-N"  >
<path style="stroke: none; stroke-width: 1; stroke-dasharray: none; stroke-linecap: butt; stroke-dashoffset: 0; stroke-linejoin: miter; stroke-miterlimit: 4; fill: rgb(92,75,81); fill-rule: nonzero; opacity: 1;" vector-effect="non-scaling-stroke"  transform=" translate(-264.3, -737.8)" d="M 284.6 720.4 C 284.6 749.1999999999999 275.5 790 264.3 790 C 253.10000000000002 790 244 749.2 244 720.4 C 244 691.5999999999999 253.1 685.6 264.3 685.6 C 275.5 685.6 284.6 691.6 284.6 720.4 z" stroke-linecap="round" />
</g>
		<g transform="matrix(1 0 0 1 0 -14.35)" id="xj1KZ9ucoRkYetF3FcBEV"  >
<path style="stroke: none; stroke-width: 1; stroke-dasharray: none; stroke-linecap: butt; stroke-dashoffset: 0; stroke-linejoin: miter; stroke-miterlimit: 4; fill: rgb(102,87,93); fill-rule: nonzero; opacity: 1;" vector-effect="non-scaling-stroke"  transform=" translate(-264.3, -679.7)" d="M 264.3 666 L 264.3 666 C 259.1 666 254.9 670.2 254.9 675.4 L 254.9 684 C 254.9 689.2 259.1 693.4 264.3 693.4 L 264.3 693.4 C 269.5 693.4 273.7 689.1999999999999 273.7 684 L 273.7 675.4 C 273.7 670.2 269.5 666 264.3 666 z" stroke-linecap="round" />
</g>
		<g transform="matrix(1 0 0 1 0 -39.25)" id="rMJNz1Flfip-PLf2Sk4dn"  >
<path style="stroke: none; stroke-width: 1; stroke-dasharray: none; stroke-linecap: butt; stroke-dashoffset: 0; stroke-linejoin: miter; stroke-miterlimit: 4; fill: rgb(92,75,81); fill-rule: nonzero; opacity: 1;" vector-effect="non-scaling-stroke"  transform=" translate(-264.3, -654.8)" d="M 267.6 636.3 L 261 636.3 C 255.8 636.3 251.6 640.5 251.6 645.6999999999999 L 251.6 663.9 C 251.6 669.1 255.79999999999998 673.3 261 673.3 L 267.6 673.3 C 272.8 673.3 277 669.0999999999999 277 663.9 L 277 645.6999999999999 C 276.9 640.5 272.8 636.3 267.6 636.3 z" stroke-linecap="round" />
</g>
		<g transform="matrix(1 0 0 1 0 -57.75)" id="qIlh4wCydMgkQjYbrx2q0"  >
<path style="stroke: none; stroke-width: 1; stroke-dasharray: none; stroke-linecap: butt; stroke-dashoffset: 0; stroke-linejoin: miter; stroke-miterlimit: 4; fill: rgb(102,87,93); fill-rule: nonzero; opacity: 1;" vector-effect="non-scaling-stroke"  transform=" translate(-264.3, -636.3)" d="M 264.3 622.6 L 264.3 622.6 C 259.1 622.6 254.9 626.8000000000001 254.9 632 L 254.9 640.6 C 254.9 645.8000000000001 259.1 650 264.3 650 L 264.3 650 C 269.5 650 273.7 645.8 273.7 640.6 L 273.7 632 C 273.7 626.8 269.5 622.6 264.3 622.6 z" stroke-linecap="round" />
</g>
		<g transform="matrix(1 0 0 1 0 -78.05)" id="SvL2QkipHsZHiukQ0uZ5I"  >
<path style="stroke: none; stroke-width: 1; stroke-dasharray: none; stroke-linecap: butt; stroke-dashoffset: 0; stroke-linejoin: miter; stroke-miterlimit: 4; fill: rgb(92,75,81); fill-rule: nonzero; opacity: 1;" vector-effect="non-scaling-stroke"  transform=" translate(-16.6, -17.9)" d="M 0 17.9 C 0 8.0141 7.43207 0 16.6 0 C 25.76793 0 33.2 8.0141 33.2 17.9 C 33.2 27.785899999999998 25.767930000000003 35.8 16.6 35.8 C 7.432070000000001 35.8 0 27.785899999999998 0 17.9 z" stroke-linecap="round" />
</g>
		<g transform="matrix(1 0 0 1 -83.65 -20.21)" id="sBu3OppOoS--80zZ6v6Cr"  >
<path style="stroke: none; stroke-width: 1; stroke-dasharray: none; stroke-linecap: butt; stroke-dashoffset: 0; stroke-linejoin: miter; stroke-miterlimit: 4; fill: rgb(183,196,184); fill-rule: nonzero; opacity: 1;" vector-effect="non-scaling-stroke"  transform=" translate(-180.65, -673.84)" d="M 245.2 676.7 L 133 699.7 C 124.7 701.4000000000001 116.4 697.3000000000001 112.6 689.7 L 105.1 674.3000000000001 C 99.1 662.0000000000001 108 647.6 121.69999999999999 647.6 L 243.5 647.6 C 251.5 647.6 258.1 654.1 258.1 662.2 L 258.1 662.2 C 258.2 669.7 252.6 675.9 245.2 676.7 z" stroke-linecap="round" />
</g>
		<g transform="matrix(1 0 0 1 -83.5 -19.81)" id="WZq5kR7PyWXnXCIkEFvaT"  >
<path style="stroke: none; stroke-width: 1; stroke-dasharray: none; stroke-linecap: butt; stroke-dashoffset: 0; stroke-linejoin: miter; stroke-miterlimit: 4; fill: rgb(204,217,206); fill-rule: nonzero; opacity: 1;" vector-effect="non-scaling-stroke"  transform=" translate(-180.8, -674.24)" d="M 124.9 667.7 L 117.4 652.3000000000001 C 116.80000000000001 651.1 116.30000000000001 649.8000000000001 116 648.5000000000001 C 105.8 651.8000000000001 100.1 663.8000000000001 105.2 674.2000000000002 L 112.7 689.6000000000001 C 116.4 697.2000000000002 124.8 701.3000000000002 133.1 699.6000000000001 L 245.3 676.6000000000001 C 252.70000000000002 675.8000000000002 258.3 669.6000000000001 258.3 662.1000000000001 L 258.3 662.1000000000001 C 258.3 659.5000000000001 257.6 657.0000000000001 256.40000000000003 654.9000000000001 L 145.40000000000003 677.6000000000001 C 137 679.4 128.6 675.3 124.9 667.7 z" stroke-linecap="round" />
</g>
		<g transform="matrix(1 0 0 1 83.6 -20.21)" id="M1A67GsooXExdDMYR4YzK"  >
<path style="stroke: none; stroke-width: 1; stroke-dasharray: none; stroke-linecap: butt; stroke-dashoffset: 0; stroke-linejoin: miter; stroke-miterlimit: 4; fill: rgb(183,196,184); fill-rule: nonzero; opacity: 1;" vector-effect="non-scaling-stroke"  transform=" translate(-347.9, -673.84)" d="M 283.4 676.7 L 395.59999999999997 699.7 C 403.9 701.4000000000001 412.2 697.3000000000001 415.99999999999994 689.7 L 423.49999999999994 674.3000000000001 C 429.49999999999994 662.0000000000001 420.59999999999997 647.6 406.8999999999999 647.6 L 285 647.6 C 277 647.6 270.4 654.1 270.4 662.2 L 270.4 662.2 C 270.4 669.7 276 675.9 283.4 676.7 z" stroke-linecap="round" />
</g>
		<g transform="matrix(1 0 0 1 83.5 -19.81)" id="1utUAjqBqk3mRwnhVrjoP"  >
<path style="stroke: none; stroke-width: 1; stroke-dasharray: none; stroke-linecap: butt; stroke-dashoffset: 0; stroke-linejoin: miter; stroke-miterlimit: 4; fill: rgb(204,217,206); fill-rule: nonzero; opacity: 1;" vector-effect="non-scaling-stroke"  transform=" translate(-347.8, -674.24)" d="M 403.7 667.7 L 411.2 652.3000000000001 C 411.8 651.1 412.3 649.8000000000001 412.59999999999997 648.5000000000001 C 422.79999999999995 651.8000000000001 428.49999999999994 663.8000000000001 423.4 674.2000000000002 L 415.9 689.6000000000001 C 412.2 697.2000000000002 403.79999999999995 701.3000000000002 395.5 699.6000000000001 L 283.3 676.6000000000001 C 275.90000000000003 675.8000000000002 270.3 669.6000000000001 270.3 662.1000000000001 L 270.3 662.1000000000001 C 270.3 659.5000000000001 271 657.0000000000001 272.2 654.9000000000001 L 383.2 677.6000000000001 C 391.7 679.4 400 675.3 403.7 667.7 z" stroke-linecap="round" />
</g>
</g>
</g>
</svg>