<?xml version="1.0" encoding="UTF-8" standalone="no" ?>
<!DOCTYPE svg PUBLIC "-//W3C//DTD SVG 1.1//EN" "http://www.w3.org/Graphics/SVG/1.1/DTD/svg11.dtd">
<svg xmlns="http://www.w3.org/2000/svg" xmlns:xlink="http://www.w3.org/1999/xlink" version="1.1" width="640" height="640" viewBox="0 0 640 640" xml:space="preserve">
<desc>Created with Fabric.js 4.6.0</desc>
<defs>
</defs>
<g transform="matrix(1.95 0 0 1.95 320 320)" id="waRT1SkN-ITrjihP2j_8b"  >
<g style="" vector-effect="non-scaling-stroke"   >
		<g transform="matrix(1 0 0 1 -75.27 -20.95)" id="dADQ4YymgzKiOUP4olcNs"  >
<path style="stroke: none; stroke-width: 1; stroke-dasharray: none; stroke-linecap: butt; stroke-dashoffset: 0; stroke-linejoin: miter; stroke-miterlimit: 4; fill: rgb(92,75,81); fill-rule: nonzero; opacity: 1;" vector-effect="non-scaling-stroke"  transform=" translate(-834.18, -292.91)" d="M 855.6 301.9 C 854.7 301.9 853.8000000000001 301.4 853.3000000000001 300.59999999999997 C 841.8000000000001 280.99999999999994 814.0000000000001 292.59999999999997 813.7 292.7 C 812.3000000000001 293.3 810.7 292.59999999999997 810.2 291.3 C 809.6 289.90000000000003 810.3000000000001 288.3 811.6 287.8 C 811.9 287.7 844.1 274.3 858 297.90000000000003 C 858.8 299.20000000000005 858.3 300.8 857 301.6 C 856.5 301.8 856 301.9 855.6 301.9 z" stroke-linecap="round" />
</g>
		<g transform="matrix(1 0 0 1 -91.81 11.98)" id="OzUY1cBEXwyFUZ_yYzeFv"  >
<path style="stroke: none; stroke-width: 1; stroke-dasharray: none; stroke-linecap: butt; stroke-dashoffset: 0; stroke-linejoin: miter; stroke-miterlimit: 4; fill: rgb(92,75,81); fill-rule: nonzero; opacity: 1;" vector-effect="non-scaling-stroke"  transform=" translate(-817.64, -325.84)" d="M 839.6 333.2 C 838.8000000000001 333.2 838 332.9 837.5 332.2 C 823.1 314.7 797.4 330.4 797.1 330.5 C 795.8000000000001 331.3 794.2 330.9 793.4 329.6 C 792.6 328.3 793 326.70000000000005 794.3 325.90000000000003 C 794.5999999999999 325.70000000000005 824.3 307.6 841.6999999999999 328.70000000000005 C 842.5999999999999 329.90000000000003 842.4999999999999 331.6 841.3 332.50000000000006 C 840.8 333 840.2 333.2 839.6 333.2 z" stroke-linecap="round" />
</g>
		<g transform="matrix(1 0 0 1 75.39 -21)" id="W-plKK01TefDTxKnpHx3_"  >
<path style="stroke: none; stroke-width: 1; stroke-dasharray: none; stroke-linecap: butt; stroke-dashoffset: 0; stroke-linejoin: miter; stroke-miterlimit: 4; fill: rgb(92,75,81); fill-rule: nonzero; opacity: 1;" vector-effect="non-scaling-stroke"  transform=" translate(-984.85, -292.86)" d="M 963.4 301.9 C 962.9 301.9 962.5 301.79999999999995 962 301.5 C 960.7 300.7 960.3 299.1 961 297.8 C 974.9 274.2 1007.1 287.6 1007.4 287.7 C 1008.8 288.3 1009.4 289.9 1008.8 291.2 C 1008.1999999999999 292.59999999999997 1006.5999999999999 293.2 1005.3 292.59999999999997 L 1005.3 292.59999999999997 C 1005.1999999999999 292.59999999999997 998 289.49999999999994 989.4 289.09999999999997 C 978.4 288.59999999999997 970.4 292.4 965.6999999999999 300.49999999999994 C 965.2 301.5 964.3 301.9 963.4 301.9 z" stroke-linecap="round" />
</g>
		<g transform="matrix(1 0 0 1 91.8 12.01)" id="rCkRLcAauoBl2F7-pTE-W"  >
<path style="stroke: none; stroke-width: 1; stroke-dasharray: none; stroke-linecap: butt; stroke-dashoffset: 0; stroke-linejoin: miter; stroke-miterlimit: 4; fill: rgb(92,75,81); fill-rule: nonzero; opacity: 1;" vector-effect="non-scaling-stroke"  transform=" translate(-1001.26, -325.87)" d="M 979.3 333.2 C 978.6999999999999 333.2 978.0999999999999 333 977.5999999999999 332.59999999999997 C 976.3999999999999 331.7 976.3 329.99999999999994 977.1999999999999 328.79999999999995 C 994.4999999999999 307.59999999999997 1024.3 325.79999999999995 1024.6 325.99999999999994 C 1025.8999999999999 326.79999999999995 1026.3 328.49999999999994 1025.5 329.69999999999993 C 1024.7 330.99999999999994 1023.1 331.3999999999999 1021.8 330.5999999999999 L 1021.8 330.5999999999999 C 1021.6999999999999 330.5999999999999 1015 326.3999999999999 1006.5999999999999 324.69999999999993 C 995.8 322.49999999999994 987.3999999999999 324.99999999999994 981.3999999999999 332.29999999999995 C 980.9 332.9 980.1 333.2 979.3 333.2 z" stroke-linecap="round" />
</g>
		<g transform="matrix(1 0 0 1 -82.9 52.98)" id="Yf50ttPORThHaMz5paYml"  >
<path style="stroke: none; stroke-width: 1; stroke-dasharray: none; stroke-linecap: butt; stroke-dashoffset: 0; stroke-linejoin: miter; stroke-miterlimit: 4; fill: rgb(92,75,81); fill-rule: nonzero; opacity: 1;" vector-effect="non-scaling-stroke"  transform=" translate(-826.55, -366.84)" d="M 803.6 376.4 C 802.9 376.4 802.2 376.09999999999997 801.7 375.59999999999997 C 800.7 374.49999999999994 800.7 372.79999999999995 801.7 371.79999999999995 C 802 371.49999999999994 828.3000000000001 345.79999999999995 851.1 363.49999999999994 C 852.3000000000001 364.3999999999999 852.5 366.09999999999997 851.6 367.29999999999995 C 850.7 368.49999999999994 849 368.69999999999993 847.8000000000001 367.79999999999995 C 839.9000000000001 361.69999999999993 830.5000000000001 360.99999999999994 819.8000000000001 365.9 C 811.5000000000001 369.7 805.5000000000001 375.59999999999997 805.5000000000001 375.59999999999997 C 804.9 376.2 804.2 376.4 803.6 376.4 z" stroke-linecap="round" />
</g>
		<g transform="matrix(1 0 0 1 77.83 52.98)" id="_d64u1zALvfGnT0n1T4Cy"  >
<path style="stroke: none; stroke-width: 1; stroke-dasharray: none; stroke-linecap: butt; stroke-dashoffset: 0; stroke-linejoin: miter; stroke-miterlimit: 4; fill: rgb(92,75,81); fill-rule: nonzero; opacity: 1;" vector-effect="non-scaling-stroke"  transform=" translate(-987.28, -366.84)" d="M 1010.2 376.4 C 1009.5 376.4 1008.8000000000001 376.09999999999997 1008.3000000000001 375.59999999999997 L 1008.3000000000001 375.59999999999997 C 1008.2 375.49999999999994 1002.3000000000001 369.7 994.0000000000001 365.9 C 983.3000000000001 361 973.9000000000001 361.7 966.0000000000001 367.79999999999995 C 964.8000000000001 368.69999999999993 963.1000000000001 368.49999999999994 962.2000000000002 367.29999999999995 C 961.3000000000002 366.09999999999997 961.5000000000001 364.4 962.7000000000002 363.49999999999994 C 985.5000000000001 345.79999999999995 1011.9000000000002 371.49999999999994 1012.1000000000001 371.79999999999995 C 1013.2000000000002 372.79999999999995 1013.2000000000002 374.59999999999997 1012.1000000000001 375.59999999999997 C 1011.6 376.2 1010.9 376.4 1010.2 376.4 z" stroke-linecap="round" />
</g>
		<g transform="matrix(1 0 0 1 0.04 -60.76)" id="14gDvz5cpuEL0jkR2noCx"  >
<path style="stroke: none; stroke-width: 1; stroke-dasharray: none; stroke-linecap: butt; stroke-dashoffset: 0; stroke-linejoin: miter; stroke-miterlimit: 4; fill: rgb(92,75,81); fill-rule: nonzero; opacity: 1;" vector-effect="non-scaling-stroke"  transform=" translate(-31.8, -31.8)" d="M 0 31.8 C 0 14.23734 14.23734 0 31.8 0 C 49.362660000000005 0 63.6 14.23734 63.6 31.8 C 63.6 49.362660000000005 49.362660000000005 63.6 31.8 63.6 C 14.23734 63.6 0 49.362660000000005 0 31.8 z" stroke-linecap="round" />
</g>
		<g transform="matrix(1 0 0 1 0.04 39.04)" id="Au6u3R1t9Zrdtiyio1xVB"  >
<path style="stroke: none; stroke-width: 1; stroke-dasharray: none; stroke-linecap: butt; stroke-dashoffset: 0; stroke-linejoin: miter; stroke-miterlimit: 4; fill: rgb(92,75,81); fill-rule: nonzero; opacity: 1;" vector-effect="non-scaling-stroke"  transform=" translate(-78.5, -88.1)" d="M 0 88.1 C 0 39.443709999999996 35.14565 0 78.5 0 C 121.85435 0 157 39.44371 157 88.1 C 157 136.75628999999998 121.85435 176.2 78.5 176.2 C 35.14565 176.2 0 136.75628999999998 0 88.1 z" stroke-linecap="round" />
</g>
		<g transform="matrix(1 0 0 1 0.09 19.84)" id="jd6UFcQsi17_QUqpx7g8m"  >
<path style="stroke: none; stroke-width: 1; stroke-dasharray: none; stroke-linecap: butt; stroke-dashoffset: 0; stroke-linejoin: miter; stroke-miterlimit: 4; fill: rgb(232,93,103); fill-rule: nonzero; opacity: 1;" vector-effect="non-scaling-stroke"  transform=" translate(-909.55, -333.7)" d="M 919.6 249.2 C 915.8000000000001 248 912.4 247.2 909.5 246.5 C 906.6 247.1 903.1 248 899.4 249.2 C 863.3 260.2 795.4 297.8 839.5 420.9 C 839.5 420.9 887.8 401.5 909.6 333.09999999999997 C 931.3000000000001 401.5 979.7 420.9 979.7 420.9 C 1023.6 297.8 955.7 260.2 919.6 249.2 z" stroke-linecap="round" />
</g>
		<g transform="matrix(1 0 0 1 -42.76 1.04)" id="VjpSp3o3kYoN9BohYASa0"  >
<path style="stroke: none; stroke-width: 1; stroke-dasharray: none; stroke-linecap: butt; stroke-dashoffset: 0; stroke-linejoin: miter; stroke-miterlimit: 4; fill: rgb(92,75,81); fill-rule: nonzero; opacity: 1;" vector-effect="non-scaling-stroke"  transform=" translate(-15.9, -15.9)" d="M 0 15.9 C 0 7.11867 7.11867 0 15.9 0 C 24.681330000000003 0 31.8 7.11867 31.8 15.9 C 31.8 24.681330000000003 24.681330000000003 31.8 15.9 31.8 C 7.11867 31.8 0 24.681330000000003 0 15.9 z" stroke-linecap="round" />
</g>
		<g transform="matrix(1 0 0 1 -2.16 -41.36)" id="LM72UGvzUrAj8PM9VtyAK"  >
<path style="stroke: none; stroke-width: 1; stroke-dasharray: none; stroke-linecap: butt; stroke-dashoffset: 0; stroke-linejoin: miter; stroke-miterlimit: 4; fill: rgb(92,75,81); fill-rule: nonzero; opacity: 1;" vector-effect="non-scaling-stroke"  transform=" translate(-15.9, -15.9)" d="M 0 15.9 C 0 7.11867 7.11867 0 15.9 0 C 24.681330000000003 0 31.8 7.11867 31.8 15.9 C 31.8 24.681330000000003 24.681330000000003 31.8 15.9 31.8 C 7.11867 31.8 0 24.681330000000003 0 15.9 z" stroke-linecap="round" />
</g>
		<g transform="matrix(1 0 0 1 50.84 55.84)" id="lUQGfUlph3_9-uulT8--w"  >
<path style="stroke: none; stroke-width: 1; stroke-dasharray: none; stroke-linecap: butt; stroke-dashoffset: 0; stroke-linejoin: miter; stroke-miterlimit: 4; fill: rgb(92,75,81); fill-rule: nonzero; opacity: 1;" vector-effect="non-scaling-stroke"  transform=" translate(-15.9, -15.9)" d="M 0 15.9 C 0 7.11867 7.11867 0 15.9 0 C 24.681330000000003 0 31.8 7.11867 31.8 15.9 C 31.8 24.681330000000003 24.681330000000003 31.8 15.9 31.8 C 7.11867 31.8 0 24.681330000000003 0 15.9 z" stroke-linecap="round" />
</g>
		<g transform="matrix(1 0 0 1 52.64 -2.46)" id="EVsZLzx9rRjiQBRSE4muV"  >
<path style="stroke: none; stroke-width: 1; stroke-dasharray: none; stroke-linecap: butt; stroke-dashoffset: 0; stroke-linejoin: miter; stroke-miterlimit: 4; fill: rgb(255,255,255); fill-rule: nonzero; opacity: 1;" vector-effect="non-scaling-stroke"  transform=" translate(-15.9, -15.9)" d="M 0 15.9 C 0 7.11867 7.11867 0 15.9 0 C 24.681330000000003 0 31.8 7.11867 31.8 15.9 C 31.8 24.681330000000003 24.681330000000003 31.8 15.9 31.8 C 7.11867 31.8 0 24.681330000000003 0 15.9 z" stroke-linecap="round" />
</g>
		<g transform="matrix(1 0 0 1 -51.56 62.94)" id="ln4I8MA733or3nu8W1A5M"  >
<path style="stroke: none; stroke-width: 1; stroke-dasharray: none; stroke-linecap: butt; stroke-dashoffset: 0; stroke-linejoin: miter; stroke-miterlimit: 4; fill: rgb(255,255,255); fill-rule: nonzero; opacity: 1;" vector-effect="non-scaling-stroke"  transform=" translate(-15.9, -15.9)" d="M 0 15.9 C 0 7.11867 7.11867 0 15.9 0 C 24.681330000000003 0 31.8 7.11867 31.8 15.9 C 31.8 24.681330000000003 24.681330000000003 31.8 15.9 31.8 C 7.11867 31.8 0 24.681330000000003 0 15.9 z" stroke-linecap="round" />
</g>
		<g transform="matrix(1 0 0 1 28.51 -101)" id="S872fx1P0lN8PVXsS-44n"  >
<path style="stroke: none; stroke-width: 1; stroke-dasharray: none; stroke-linecap: butt; stroke-dashoffset: 0; stroke-linejoin: miter; stroke-miterlimit: 4; fill: rgb(92,75,81); fill-rule: nonzero; opacity: 1;" vector-effect="non-scaling-stroke"  transform=" translate(-937.97, -212.86)" d="M 919 232.6 C 918 232.6 917 232 916.5 231 C 910.5 217.2 916.9 201 930.7 195 C 936.2 192.6 942.3000000000001 192.5 947.9000000000001 194.7 C 953.5000000000001 196.89999999999998 957.8000000000001 201.1 960.2 206.6 C 964.2 215.9 959.9000000000001 226.79999999999998 950.6 230.9 C 942.8000000000001 234.3 933.8000000000001 230.70000000000002 930.5 222.9 C 929.1 219.8 929.1 216.3 930.3 213.1 C 931.5999999999999 209.9 934 207.4 937.0999999999999 206.1 C 938.4999999999999 205.5 940.0999999999999 206.1 940.5999999999999 207.5 C 941.1999999999999 208.9 940.5999999999999 210.5 939.1999999999999 211 C 937.4 211.8 935.9999999999999 213.2 935.3 215.1 C 934.5999999999999 216.9 934.5999999999999 218.9 935.4 220.79999999999998 C 936.5 223.2 938.4 225.1 940.9 226.1 C 943.4 227.1 946.1 227 948.5 226 C 955.1 223.1 958.2 215.4 955.3 208.8 C 953.5 204.60000000000002 950.1999999999999 201.4 945.9 199.70000000000002 C 941.6999999999999 198.00000000000003 937 198.10000000000002 932.9 199.9 C 921.8 204.70000000000002 916.6999999999999 217.70000000000002 921.5 228.8 C 922.1 230.20000000000002 921.5 231.8 920.1 232.3 C 919.7 232.5 919.3 232.6 919 232.6 z" stroke-linecap="round" />
</g>
		<g transform="matrix(1 0 0 1 -32.45 -104.2)" id="GfxY9g4MnUm478OWlmEGX"  >
<path style="stroke: none; stroke-width: 1; stroke-dasharray: none; stroke-linecap: butt; stroke-dashoffset: 0; stroke-linejoin: miter; stroke-miterlimit: 4; fill: rgb(92,75,81); fill-rule: nonzero; opacity: 1;" vector-effect="non-scaling-stroke"  transform=" translate(-877.01, -209.66)" d="M 899.6 232.6 C 899.2 232.6 898.9 232.5 898.5 232.4 C 897.1 231.8 896.5 230.20000000000002 897.1 228.9 C 899.9 222.4 900.1 215.1 897.4 208.5 C 894.8 201.9 889.6999999999999 196.7 883.1999999999999 193.8 C 878.0999999999999 191.60000000000002 872.4 191.5 867.3 193.5 C 862.0999999999999 195.5 858.0999999999999 199.5 855.9 204.6 C 854.1999999999999 208.5 854.1 212.9 855.6999999999999 216.9 C 857.3 220.9 860.3 224 864.3 225.8 C 867.3 227.10000000000002 870.6999999999999 227.20000000000002 873.8 226 C 876.9 224.8 879.3 222.5 880.5999999999999 219.4 C 882.5999999999999 214.70000000000002 880.4999999999999 209.20000000000002 875.6999999999999 207.1 C 874.3 206.5 873.6999999999999 204.9 874.3 203.6 C 874.9 202.2 876.5 201.6 877.8 202.2 C 885.3 205.39999999999998 888.6999999999999 214.1 885.5 221.6 C 883.6 225.9 880.2 229.29999999999998 875.7 231 C 871.3000000000001 232.7 866.5 232.7 862.1 230.8 C 856.8000000000001 228.5 852.8000000000001 224.3 850.7 219 C 848.6 213.7 848.7 207.8 851 202.5 C 853.8 196.1 858.9 191.1 865.4 188.6 C 871.9 186 879 186.1 885.5 188.9 C 901.7 195.9 909.2 214.9 902.2 231.10000000000002 C 901.6 232 900.6 232.6 899.6 232.6 z" stroke-linecap="round" />
</g>
</g>
</g>
</svg>