<?xml version="1.0" encoding="UTF-8" standalone="no" ?>
<!DOCTYPE svg PUBLIC "-//W3C//DTD SVG 1.1//EN" "http://www.w3.org/Graphics/SVG/1.1/DTD/svg11.dtd">
<svg xmlns="http://www.w3.org/2000/svg" xmlns:xlink="http://www.w3.org/1999/xlink" version="1.1" width="640" height="640" viewBox="0 0 640 640" xml:space="preserve">
<desc>Created with Fabric.js 4.6.0</desc>
<defs>
</defs>
<g transform="matrix(1.95 0 0 1.95 320 320)" id="AV-I0gvJHBgHAPKabWpaD"  >
<g style="" vector-effect="non-scaling-stroke"   >
		<g transform="matrix(1 0 0 1 -38.48 -57.26)" id="jJAjS4ISVYXxrlSebpvb2"  >
<path style="stroke: none; stroke-width: 1; stroke-dasharray: none; stroke-linecap: butt; stroke-dashoffset: 0; stroke-linejoin: miter; stroke-miterlimit: 4; fill: rgb(92,75,81); fill-rule: nonzero; opacity: 1;" vector-effect="non-scaling-stroke"  transform=" translate(-870.97, -636.79)" d="M 906.8 658.8 C 906.3 658.8 905.8 658.6999999999999 905.4 658.4 L 881.3 643.4 L 852.3 643.4 C 851.5 643.4 850.6999999999999 643 850.0999999999999 642.3 L 832.8999999999999 619.0999999999999 C 831.9999999999999 617.8999999999999 832.2999999999998 616.1999999999999 833.4999999999999 615.3 C 834.6999999999999 614.4 836.3999999999999 614.6999999999999 837.2999999999998 615.9 L 853.6999999999998 638 L 882.0999999999998 638 C 882.5999999999998 638 883.0999999999998 638.1 883.4999999999998 638.4 L 908.2999999999997 653.8 C 909.5999999999997 654.5999999999999 909.8999999999997 656.1999999999999 909.1999999999997 657.5 C 908.6 658.3 907.7 658.8 906.8 658.8 z" stroke-linecap="round" />
</g>
		<g transform="matrix(1 0 0 1 38.54 -57.24)" id="LCI9r27fBrqz99tqZiDdS"  >
<path style="stroke: none; stroke-width: 1; stroke-dasharray: none; stroke-linecap: butt; stroke-dashoffset: 0; stroke-linejoin: miter; stroke-miterlimit: 4; fill: rgb(92,75,81); fill-rule: nonzero; opacity: 1;" vector-effect="non-scaling-stroke"  transform=" translate(-947.98, -636.81)" d="M 912.1 658.8 C 911.2 658.8 910.3000000000001 658.4 909.8000000000001 657.5 C 909.0000000000001 656.2 909.4000000000001 654.6 910.7 653.8 L 935.5 638.4 C 935.9 638.1 936.4 638 936.9 638 L 965.3 638 L 981.6999999999999 615.9 C 982.5999999999999 614.6999999999999 984.3 614.5 985.4999999999999 615.3 C 986.6999999999999 616.1999999999999 986.8999999999999 617.9 986.0999999999999 619.0999999999999 L 968.8999999999999 642.3 C 968.3999999999999 643 967.5999999999999 643.4 966.6999999999998 643.4 L 937.6999999999998 643.4 L 913.5999999999998 658.4 C 913.1 658.7 912.6 658.8 912.1 658.8 z" stroke-linecap="round" />
</g>
		<g transform="matrix(1 0 0 1 -49.63 -3.73)" id="48NTs2XGbOc2QOWFywLpQ"  >
<path style="stroke: none; stroke-width: 1; stroke-dasharray: none; stroke-linecap: butt; stroke-dashoffset: 0; stroke-linejoin: miter; stroke-miterlimit: 4; fill: rgb(92,75,81); fill-rule: nonzero; opacity: 1;" vector-effect="non-scaling-stroke"  transform=" translate(-859.82, -690.32)" d="M 824 710.2 C 823.5 710.2 822.9 710 822.4 709.7 C 821.1999999999999 708.8000000000001 820.9 707.2 821.8 706 L 839 682 C 839.3 681.6 839.8 681.2 840.3 681 L 870 670.6 C 870.8 670.3000000000001 871.6 670.4 872.3 670.9 L 897.0999999999999 686.3 C 898.3999999999999 687.0999999999999 898.6999999999999 688.6999999999999 897.9999999999999 690 C 897.1999999999999 691.3 895.5999999999999 691.6 894.2999999999998 690.9 L 870.5999999999998 676.1 L 842.8999999999997 685.8000000000001 L 826.1999999999997 709.1 C 825.6 709.8 824.8 710.2 824 710.2 z" stroke-linecap="round" />
</g>
		<g transform="matrix(1 0 0 1 49.71 -3.7)" id="8-6z2mXNRzAZBVblIejL9"  >
<path style="stroke: none; stroke-width: 1; stroke-dasharray: none; stroke-linecap: butt; stroke-dashoffset: 0; stroke-linejoin: miter; stroke-miterlimit: 4; fill: rgb(92,75,81); fill-rule: nonzero; opacity: 1;" vector-effect="non-scaling-stroke"  transform=" translate(-959.16, -690.35)" d="M 995 710.2 C 994.2 710.2 993.3 709.8000000000001 992.8 709.1 L 976.0999999999999 685.8000000000001 L 948.3999999999999 676.1 L 924.6999999999998 690.9 C 923.3999999999999 691.6999999999999 921.7999999999998 691.3 920.9999999999998 690 C 920.1999999999998 688.7 920.5999999999998 687.1 921.8999999999997 686.3 L 946.6999999999997 670.9 C 947.3999999999997 670.5 948.1999999999997 670.4 948.9999999999997 670.6 L 978.6999999999997 681 C 979.1999999999997 681.2 979.6999999999997 681.5 979.9999999999997 682 L 997.1999999999997 705.9 C 998.0999999999997 707.1 997.7999999999997 708.8 996.5999999999997 709.6 C 996 710 995.5 710.2 995 710.2 z" stroke-linecap="round" />
</g>
		<g transform="matrix(1 0 0 1 -49.87 74.59)" id="dAA-dgqrCko3I6IPovIx3"  >
<path style="stroke: none; stroke-width: 1; stroke-dasharray: none; stroke-linecap: butt; stroke-dashoffset: 0; stroke-linejoin: miter; stroke-miterlimit: 4; fill: rgb(92,75,81); fill-rule: nonzero; opacity: 1;" vector-effect="non-scaling-stroke"  transform=" translate(-859.58, -768.64)" d="M 813.2 817.5 C 812.1 817.5 811 816.8 810.7 815.7 C 810.2 814.3000000000001 811 812.8000000000001 812.4000000000001 812.3000000000001 L 830.6000000000001 806.1 L 849.5000000000001 739.1 C 849.8000000000001 737.9 850.9000000000001 737.1 852.1000000000001 737.1 L 877.4000000000001 737.1 L 904.5000000000001 720.2 C 905.8000000000001 719.4000000000001 907.4000000000001 719.8000000000001 908.2000000000002 721.1 C 909.0000000000001 722.4 908.6000000000001 724 907.3000000000002 724.8000000000001 L 879.5000000000002 742.1 C 879.1000000000003 742.4 878.6000000000003 742.5 878.1000000000003 742.5 L 854.0000000000002 742.5 L 835.3000000000002 808.9 C 835.1000000000001 809.6999999999999 834.4000000000002 810.4 833.6000000000001 810.6999999999999 L 814.1000000000001 817.3 C 813.8 817.4 813.5 817.5 813.2 817.5 z" stroke-linecap="round" />
</g>
		<g transform="matrix(1 0 0 1 49.89 74.67)" id="bfiBLuPx-aJ9KUTmkZRxA"  >
<path style="stroke: none; stroke-width: 1; stroke-dasharray: none; stroke-linecap: butt; stroke-dashoffset: 0; stroke-linejoin: miter; stroke-miterlimit: 4; fill: rgb(92,75,81); fill-rule: nonzero; opacity: 1;" vector-effect="non-scaling-stroke"  transform=" translate(-959.34, -768.72)" d="M 1005.7 817.5 C 1005.4000000000001 817.5 1005.1 817.5 1004.8000000000001 817.4 L 985.3000000000001 810.8 C 984.5000000000001 810.5 983.8000000000001 809.8 983.6 809 L 964.9 742.6 L 940.8 742.6 C 940.3 742.6 939.8 742.5 939.4 742.2 L 911.6 724.9000000000001 C 910.3000000000001 724.1000000000001 910 722.5000000000001 910.7 721.2 C 911.5 719.9000000000001 913.1 719.6 914.4000000000001 720.3000000000001 L 941.5000000000001 737.2 L 966.8000000000001 737.2 C 968.0000000000001 737.2 969.1 738 969.4000000000001 739.2 L 988.3000000000001 806.2 L 1006.5000000000001 812.4000000000001 C 1007.9000000000001 812.9000000000001 1008.7000000000002 814.4000000000001 1008.2000000000002 815.8000000000001 C 1007.9 816.8 1006.8 817.5 1005.7 817.5 z" stroke-linecap="round" />
</g>
		<g transform="matrix(1 0 0 1 -0.05 21.35)" id="zi-g1iJBCar5-mCaHZUE4"  >
<path style="stroke: none; stroke-width: 1; stroke-dasharray: none; stroke-linecap: butt; stroke-dashoffset: 0; stroke-linejoin: miter; stroke-miterlimit: 4; fill: rgb(92,75,81); fill-rule: nonzero; opacity: 1;" vector-effect="non-scaling-stroke"  transform=" translate(-909.4, -715.4)" d="M 971.8 726.2 C 971.8 772.6 943.9 799.4000000000001 909.4 799.4000000000001 C 874.9 799.4000000000001 847 772.6000000000001 847 726.2 C 847 679.8 874.9 631.4000000000001 909.4 631.4000000000001 C 943.9 631.3 971.8 679.8 971.8 726.2 z" stroke-linecap="round" />
</g>
		<g transform="matrix(1 0 0 1 -0.05 -73.9)" id="G_GN3HvsJPtnqdFLHW9gX"  >
<path style="stroke: none; stroke-width: 1; stroke-dasharray: none; stroke-linecap: butt; stroke-dashoffset: 0; stroke-linejoin: miter; stroke-miterlimit: 4; fill: rgb(92,75,81); fill-rule: nonzero; opacity: 1;" vector-effect="non-scaling-stroke"  transform=" translate(-909.4, -620.15)" d="M 922.7 637.8 L 896.1 637.8 C 889.5 637.8 884.1 632.4 884.1 625.8 L 884.1 621.9 C 884.1 611.1999999999999 892.8000000000001 602.5 903.5 602.5 L 915.3 602.5 C 926 602.5 934.6999999999999 611.2 934.6999999999999 621.9 L 934.6999999999999 625.8 C 934.7 632.4 929.3 637.8 922.7 637.8 z" stroke-linecap="round" />
</g>
		<g transform="matrix(1 0 0 1 -32.24 -101.85)" id="O6CRCpovgB6UBpMbbvmgd"  >
<path style="stroke: none; stroke-width: 1; stroke-dasharray: none; stroke-linecap: butt; stroke-dashoffset: 0; stroke-linejoin: miter; stroke-miterlimit: 4; fill: rgb(92,75,81); fill-rule: nonzero; opacity: 1;" vector-effect="non-scaling-stroke"  transform=" translate(-877.2, -592.2)" d="M 902.4 613.8 C 901.4 613.8 900.6 613.0999999999999 900.5 612.0999999999999 C 896.1 575.8 852.3 574.4999999999999 851.9 574.4999999999999 C 850.8 574.4999999999999 850 573.5999999999999 850 572.4999999999999 C 850 571.3999999999999 850.9 570.5999999999999 852 570.5999999999999 C 852.5 570.5999999999999 899.6 571.9999999999999 904.4 611.5999999999999 C 904.5 612.6999999999999 903.8 613.5999999999999 902.6999999999999 613.6999999999999 C 902.6 613.8 902.5 613.8 902.4 613.8 z" stroke-linecap="round" />
</g>
		<g transform="matrix(1 0 0 1 32.25 -101.8)" id="NMg_hmvmXxzEZvm2p8l3e"  >
<path style="stroke: none; stroke-width: 1; stroke-dasharray: none; stroke-linecap: butt; stroke-dashoffset: 0; stroke-linejoin: miter; stroke-miterlimit: 4; fill: rgb(92,75,81); fill-rule: nonzero; opacity: 1;" vector-effect="non-scaling-stroke"  transform=" translate(-941.7, -592.25)" d="M 916.4 613.8 C 916.3 613.8 916.1999999999999 613.8 916.1999999999999 613.8 C 915.0999999999999 613.6999999999999 914.4 612.6999999999999 914.4999999999999 611.6999999999999 C 919.2999999999998 572.0999999999999 966.3999999999999 570.6999999999999 966.8999999999999 570.6999999999999 C 967.9999999999999 570.6999999999999 968.7999999999998 571.4999999999999 968.8999999999999 572.5999999999999 C 968.8999999999999 573.6999999999999 968.0999999999999 574.4999999999999 966.9999999999999 574.5999999999999 C 966.8999999999999 574.5999999999999 955.6999999999999 574.8999999999999 944.0999999999999 579.8 C 928.8999999999999 586.1999999999999 920.1999999999999 597.0999999999999 918.3999999999999 612.1999999999999 C 918.2 613.1 917.4 613.8 916.4 613.8 z" stroke-linecap="round" />
</g>
		<g transform="matrix(1 0 0 1 0.05 32.25)" id="mhr8Ug5DlEtnG_mnXkbJo"  >
<path style="stroke: none; stroke-width: 1; stroke-dasharray: none; stroke-linecap: butt; stroke-dashoffset: 0; stroke-linejoin: miter; stroke-miterlimit: 4; fill: rgb(119,100,107); fill-rule: nonzero; opacity: 1;" vector-effect="non-scaling-stroke"  transform=" translate(-909.5, -726.3)" d="M 947.7 653.2 L 909.4000000000001 673.2 L 871.1000000000001 653.2 C 869.5000000000001 655.2 868.0000000000001 657.3000000000001 866.5000000000001 659.5 L 905.6000000000001 679.9 L 905.6000000000001 799.3 C 906.9000000000001 799.4 908.2000000000002 799.4 909.5000000000001 799.4 C 910.8000000000001 799.4 912.1000000000001 799.3 913.4000000000001 799.3 L 913.4000000000001 679.8 L 952.5000000000001 659.4 C 950.9 657.3 949.3 655.2 947.7 653.2 z" stroke-linecap="round" />
</g>
</g>
</g>
</svg>