<?xml version="1.0" encoding="UTF-8" standalone="no" ?>
<!DOCTYPE svg PUBLIC "-//W3C//DTD SVG 1.1//EN" "http://www.w3.org/Graphics/SVG/1.1/DTD/svg11.dtd">
<svg xmlns="http://www.w3.org/2000/svg" xmlns:xlink="http://www.w3.org/1999/xlink" version="1.1" width="640" height="640" viewBox="0 0 640 640" xml:space="preserve">
<desc>Created with Fabric.js 4.6.0</desc>
<defs>
</defs>
<g transform="matrix(1.95 0 0 1.95 320 320)" id="KJ1Mdo2SP4X2cUClZgsfI"  >
<g style="" vector-effect="non-scaling-stroke"   >
		<g transform="matrix(1 0 0 1 -62.49 -59.18)" id="L9A7hecv5PRmV94kEbHq9"  >
<path style="stroke: none; stroke-width: 1; stroke-dasharray: none; stroke-linecap: butt; stroke-dashoffset: 0; stroke-linejoin: miter; stroke-miterlimit: 4; fill: rgb(92,75,81); fill-rule: nonzero; opacity: 1;" vector-effect="non-scaling-stroke"  transform=" translate(-202.79, -254.62)" d="M 251.5 278.8 C 251.1 278.8 250.7 278.7 250.3 278.6 L 189.20000000000002 256.6 C 188.3 256.3 187.60000000000002 255.60000000000002 187.20000000000002 254.8 L 179.50000000000003 238.5 L 155.50000000000003 248.1 C 153.70000000000002 248.79999999999998 151.70000000000002 247.9 150.90000000000003 246.2 C 150.20000000000005 244.39999999999998 151.10000000000002 242.39999999999998 152.80000000000004 241.6 L 179.90000000000003 230.7 C 181.60000000000002 230 183.60000000000002 230.79999999999998 184.40000000000003 232.5 L 192.90000000000003 250.5 L 252.60000000000002 272 C 254.40000000000003 272.7 255.40000000000003 274.7 254.70000000000002 276.5 C 254.3 277.9 253 278.8 251.5 278.8 z" stroke-linecap="round" />
</g>
		<g transform="matrix(1 0 0 1 62.35 -59.18)" id="fhlXKz8Kajm-e12SGzEnM"  >
<path style="stroke: none; stroke-width: 1; stroke-dasharray: none; stroke-linecap: butt; stroke-dashoffset: 0; stroke-linejoin: miter; stroke-miterlimit: 4; fill: rgb(92,75,81); fill-rule: nonzero; opacity: 1;" vector-effect="non-scaling-stroke"  transform=" translate(-327.63, -254.62)" d="M 279 278.8 C 277.6 278.8 276.2 277.90000000000003 275.7 276.5 C 275 274.7 276 272.7 277.8 272 L 337.5 250.5 L 346 232.5 C 346.8 230.8 348.8 230 350.5 230.7 L 377.6 241.6 C 379.40000000000003 242.29999999999998 380.3 244.4 379.5 246.2 C 378.8 248 376.7 248.89999999999998 374.9 248.1 L 350.9 238.5 L 343.2 254.8 C 342.8 255.60000000000002 342.09999999999997 256.3 341.2 256.6 L 280.09999999999997 278.6 C 279.8 278.7 279.4 278.8 279 278.8 z" stroke-linecap="round" />
</g>
		<g transform="matrix(1 0 0 1 -52.01 38.07)" id="c113pv6gplPElkq9ZTQV1"  >
<path style="stroke: none; stroke-width: 1; stroke-dasharray: none; stroke-linecap: butt; stroke-dashoffset: 0; stroke-linejoin: miter; stroke-miterlimit: 4; fill: rgb(92,75,81); fill-rule: nonzero; opacity: 1;" vector-effect="non-scaling-stroke"  transform=" translate(-213.27, -351.88)" d="M 203.2 374.2 L 185.7 374.2 C 183.79999999999998 374.2 182.2 372.59999999999997 182.2 370.7 C 182.2 368.8 183.79999999999998 367.2 185.7 367.2 L 201.7 367.2 L 238.29999999999998 330.59999999999997 C 239.7 329.2 241.89999999999998 329.2 243.29999999999998 330.59999999999997 C 244.7 331.99999999999994 244.7 334.2 243.29999999999998 335.59999999999997 L 205.7 373.2 C 205 373.8 204.2 374.2 203.2 374.2 z" stroke-linecap="round" />
</g>
		<g transform="matrix(1 0 0 1 -30.16 64.67)" id="5pK0CmSWdRcXGUuWLRzXi"  >
<path style="stroke: none; stroke-width: 1; stroke-dasharray: none; stroke-linecap: butt; stroke-dashoffset: 0; stroke-linejoin: miter; stroke-miterlimit: 4; fill: rgb(92,75,81); fill-rule: nonzero; opacity: 1;" vector-effect="non-scaling-stroke"  transform=" translate(-235.13, -378.48)" d="M 222.5 405.6 L 200.5 405.6 C 198.6 405.6 197 404 197 402.1 C 197 400.20000000000005 198.6 398.6 200.5 398.6 L 221 398.6 L 267.2 352.40000000000003 C 268.59999999999997 351.00000000000006 270.8 351.00000000000006 272.2 352.40000000000003 C 273.59999999999997 353.8 273.59999999999997 356.00000000000006 272.2 357.40000000000003 L 225 404.6 C 224.3 405.3 223.4 405.6 222.5 405.6 z" stroke-linecap="round" />
</g>
		<g transform="matrix(1 0 0 1 51.94 38.07)" id="NKWNYzzqxtLzgH9TB_-OR"  >
<path style="stroke: none; stroke-width: 1; stroke-dasharray: none; stroke-linecap: butt; stroke-dashoffset: 0; stroke-linejoin: miter; stroke-miterlimit: 4; fill: rgb(92,75,81); fill-rule: nonzero; opacity: 1;" vector-effect="non-scaling-stroke"  transform=" translate(-317.23, -351.88)" d="M 344.8 374.2 L 327.3 374.2 C 326.40000000000003 374.2 325.5 373.8 324.8 373.2 L 287.2 335.59999999999997 C 285.8 334.2 285.8 331.99999999999994 287.2 330.59999999999997 C 288.59999999999997 329.2 290.8 329.2 292.2 330.59999999999997 L 328.8 367.2 L 344.8 367.2 C 346.7 367.2 348.3 368.8 348.3 370.7 C 348.3 372.59999999999997 346.8 374.2 344.8 374.2 z" stroke-linecap="round" />
</g>
		<g transform="matrix(1 0 0 1 30.19 64.67)" id="tWlMAuBJoT18XbDpGyinA"  >
<path style="stroke: none; stroke-width: 1; stroke-dasharray: none; stroke-linecap: butt; stroke-dashoffset: 0; stroke-linejoin: miter; stroke-miterlimit: 4; fill: rgb(92,75,81); fill-rule: nonzero; opacity: 1;" vector-effect="non-scaling-stroke"  transform=" translate(-295.48, -378.48)" d="M 330.1 405.6 L 308.1 405.6 C 307.20000000000005 405.6 306.3 405.20000000000005 305.6 404.6 L 258.40000000000003 357.40000000000003 C 257.00000000000006 356.00000000000006 257.00000000000006 353.8 258.40000000000003 352.40000000000003 C 259.8 351.00000000000006 262.00000000000006 351.00000000000006 263.40000000000003 352.40000000000003 L 309.6 398.6 L 330.1 398.6 C 332 398.6 333.6 400.20000000000005 333.6 402.1 C 333.6 404 332 405.6 330.1 405.6 z" stroke-linecap="round" />
</g>
		<g transform="matrix(1 0 0 1 -0.04 -60.65)" id="O3h88vPCGjm3MjYZH4jAg"  >
<path style="stroke: none; stroke-width: 1; stroke-dasharray: none; stroke-linecap: butt; stroke-dashoffset: 0; stroke-linejoin: miter; stroke-miterlimit: 4; fill: rgb(92,75,81); fill-rule: nonzero; opacity: 1;" vector-effect="non-scaling-stroke"  transform=" translate(-265.25, -253.15)" d="M 278.6 265.6 L 251.90000000000003 265.6 L 251.90000000000003 248.10000000000002 C 251.90000000000003 244.00000000000003 255.20000000000005 240.70000000000002 259.3 240.70000000000002 L 271.1 240.70000000000002 C 275.20000000000005 240.70000000000002 278.5 244.00000000000003 278.5 248.10000000000002 L 278.5 265.6 z" stroke-linecap="round" />
</g>
		<g transform="matrix(1 0 0 1 -0.04 -78.8)" id="GgvR-o3jB__zL8pm5LoC6"  >
<path style="stroke: none; stroke-width: 1; stroke-dasharray: none; stroke-linecap: butt; stroke-dashoffset: 0; stroke-linejoin: miter; stroke-miterlimit: 4; fill: rgb(92,75,81); fill-rule: nonzero; opacity: 1;" vector-effect="non-scaling-stroke"  transform=" translate(-265.25, -235)" d="M 276.3 251 L 254.3 251 C 247.70000000000002 251 242.3 245.6 242.3 239 L 242.3 238.4 C 242.3 227.70000000000002 251 219 261.7 219 L 268.8 219 C 279.5 219 288.2 227.7 288.2 238.4 L 288.2 239 C 288.3 245.7 282.9 251 276.3 251 z" stroke-linecap="round" />
</g>
		<g transform="matrix(1 0 0 1 -29.28 -104.2)" id="gChAKdtaR68HfOXJ_6Irs"  >
<path style="stroke: none; stroke-width: 1; stroke-dasharray: none; stroke-linecap: butt; stroke-dashoffset: 0; stroke-linejoin: miter; stroke-miterlimit: 4; fill: rgb(92,75,81); fill-rule: nonzero; opacity: 1;" vector-effect="non-scaling-stroke"  transform=" translate(-236, -209.6)" d="M 258.9 229.2 C 258 229.2 257.29999999999995 228.5 257.2 227.7 C 253.2 194.7 213.39999999999998 193.5 213 193.5 C 212 193.5 211.3 192.7 211.3 191.7 C 211.3 190.7 212.20000000000002 190 213.10000000000002 190 C 213.50000000000003 190 256.3 191.3 260.70000000000005 227.2 C 260.80000000000007 228.2 260.1 229 259.20000000000005 229.2 C 259 229.2 259 229.2 258.9 229.2 z" stroke-linecap="round" />
</g>
		<g transform="matrix(1 0 0 1 29.41 -104.2)" id="0s-Ql3q3xEr9cwbKgxlMa"  >
<path style="stroke: none; stroke-width: 1; stroke-dasharray: none; stroke-linecap: butt; stroke-dashoffset: 0; stroke-linejoin: miter; stroke-miterlimit: 4; fill: rgb(92,75,81); fill-rule: nonzero; opacity: 1;" vector-effect="non-scaling-stroke"  transform=" translate(-294.69, -209.6)" d="M 271.7 229.2 C 271.59999999999997 229.2 271.59999999999997 229.2 271.5 229.2 C 270.5 229.1 269.9 228.2 270 227.2 C 274.4 191.29999999999998 317.2 190 317.6 190 C 318.6 190 319.40000000000003 190.7 319.40000000000003 191.7 C 319.40000000000003 192.7 318.70000000000005 193.5 317.70000000000005 193.5 C 317.6 193.5 307.40000000000003 193.8 296.90000000000003 198.2 C 283.1 204 275.20000000000005 213.89999999999998 273.50000000000006 227.7 C 273.3 228.6 272.5 229.2 271.7 229.2 z" stroke-linecap="round" />
</g>
		<g transform="matrix(1 0 0 1 0.01 34.3)" id="2aGvYz0Ft3KCc2eGPRVWZ"  >
<path style="stroke: none; stroke-width: 1; stroke-dasharray: none; stroke-linecap: butt; stroke-dashoffset: 0; stroke-linejoin: miter; stroke-miterlimit: 4; fill: rgb(242,199,119); fill-rule: nonzero; opacity: 1;" vector-effect="non-scaling-stroke"  transform=" translate(-265.3, -348.1)" d="M 311.2 333.9 C 311.2 383.29999999999995 265.3 437.59999999999997 265.3 437.59999999999997 C 265.3 437.59999999999997 219.4 383.4 219.4 333.9 C 219.4 284.4 240 258.59999999999997 265.3 258.59999999999997 C 290.6 258.6 311.2 284.5 311.2 333.9 z" stroke-linecap="round" />
</g>
		<g transform="matrix(1 0 0 1 -0.04 -35.8)" id="2COuazG6-8VG91C46Fqsh"  >
<path style="stroke: none; stroke-width: 1; stroke-dasharray: none; stroke-linecap: butt; stroke-dashoffset: 0; stroke-linejoin: miter; stroke-miterlimit: 4; fill: rgb(219,173,99); fill-rule: nonzero; opacity: 1;" vector-effect="non-scaling-stroke"  transform=" translate(-265.25, -278)" d="M 236.3 272.9 C 233.8 275.9 231.60000000000002 279.29999999999995 229.60000000000002 283.09999999999997 L 300.90000000000003 283.09999999999997 C 298.90000000000003 279.29999999999995 296.70000000000005 275.9 294.20000000000005 272.9 L 236.3 272.9 z" stroke-linecap="round" />
</g>
		<g transform="matrix(1 0 0 1 -0.04 -14.5)" id="VJzQSSY1R5ju_vzgMX0qc"  >
<path style="stroke: none; stroke-width: 1; stroke-dasharray: none; stroke-linecap: butt; stroke-dashoffset: 0; stroke-linejoin: miter; stroke-miterlimit: 4; fill: rgb(219,173,99); fill-rule: nonzero; opacity: 1;" vector-effect="non-scaling-stroke"  transform=" translate(-265.25, -299.3)" d="M 225 294.2 C 223.9 297.4 223 300.8 222.2 304.4 L 308.29999999999995 304.4 C 307.49999999999994 300.79999999999995 306.59999999999997 297.4 305.49999999999994 294.2 L 225 294.2 z" stroke-linecap="round" />
</g>
		<g transform="matrix(1 0 0 1 -0.04 6.7)" id="p-8bxHFkw-Y4zwaZIbPYq"  >
<path style="stroke: none; stroke-width: 1; stroke-dasharray: none; stroke-linecap: butt; stroke-dashoffset: 0; stroke-linejoin: miter; stroke-miterlimit: 4; fill: rgb(219,173,99); fill-rule: nonzero; opacity: 1;" vector-effect="non-scaling-stroke"  transform=" translate(-265.25, -320.5)" d="M 220.4 315.4 C 220 318.7 219.70000000000002 322.09999999999997 219.5 325.59999999999997 L 311 325.59999999999997 C 310.8 322.09999999999997 310.5 318.7 310.1 315.4 L 220.4 315.4 z" stroke-linecap="round" />
</g>
		<g transform="matrix(1 0 0 1 -0.04 28)" id="1uBZOr_l3EW6zWemiigSQ"  >
<path style="stroke: none; stroke-width: 1; stroke-dasharray: none; stroke-linecap: butt; stroke-dashoffset: 0; stroke-linejoin: miter; stroke-miterlimit: 4; fill: rgb(219,173,99); fill-rule: nonzero; opacity: 1;" vector-effect="non-scaling-stroke"  transform=" translate(-265.25, -341.8)" d="M 219.4 336.7 C 219.5 340.09999999999997 219.8 343.5 220.3 346.9 L 310.20000000000005 346.9 C 310.70000000000005 343.5 311.00000000000006 340.09999999999997 311.1 336.7 L 219.4 336.7 z" stroke-linecap="round" />
</g>
		<g transform="matrix(1 0 0 1 0.01 49.3)" id="Zw1G1dnAra2MceHDRe5Ij"  >
<path style="stroke: none; stroke-width: 1; stroke-dasharray: none; stroke-linecap: butt; stroke-dashoffset: 0; stroke-linejoin: miter; stroke-miterlimit: 4; fill: rgb(219,173,99); fill-rule: nonzero; opacity: 1;" vector-effect="non-scaling-stroke"  transform=" translate(-265.3, -363.1)" d="M 222.6 358 C 223.5 361.4 224.5 364.8 225.6 368.2 L 305 368.2 C 306.1 364.8 307.1 361.4 308 358 L 222.6 358 z" stroke-linecap="round" />
</g>
		<g transform="matrix(1 0 0 1 -0.09 70.5)" id="gWIb6oQCREe3y4TWeQ2So"  >
<path style="stroke: none; stroke-width: 1; stroke-dasharray: none; stroke-linecap: butt; stroke-dashoffset: 0; stroke-linejoin: miter; stroke-miterlimit: 4; fill: rgb(219,173,99); fill-rule: nonzero; opacity: 1;" vector-effect="non-scaling-stroke"  transform=" translate(-265.2, -384.3)" d="M 229.7 379.2 C 231.2 382.7 232.7 386.09999999999997 234.29999999999998 389.4 L 296.09999999999997 389.4 C 297.7 386.09999999999997 299.29999999999995 382.7 300.7 379.2 L 229.7 379.2 z" stroke-linecap="round" />
</g>
		<g transform="matrix(1 0 0 1 -0.04 91.8)" id="Fd4jvEfzBrmmBQdCunfr0"  >
<path style="stroke: none; stroke-width: 1; stroke-dasharray: none; stroke-linecap: butt; stroke-dashoffset: 0; stroke-linejoin: miter; stroke-miterlimit: 4; fill: rgb(219,173,99); fill-rule: nonzero; opacity: 1;" vector-effect="non-scaling-stroke"  transform=" translate(-265.25, -405.6)" d="M 284.4 410.7 C 286.4 407.5 288.4 404.09999999999997 290.4 400.5 L 240.09999999999997 400.5 C 242.09999999999997 404.1 244.09999999999997 407.5 246.09999999999997 410.7 L 284.4 410.7 z" stroke-linecap="round" />
</g>
		<g transform="matrix(1 0 0 1 -70.02 -9.29)" id="DHNVNemKIMA3A-0wDMIrz"  >
<path style="stroke: none; stroke-width: 1; stroke-dasharray: none; stroke-linecap: butt; stroke-dashoffset: 0; stroke-linejoin: miter; stroke-miterlimit: 4; fill: rgb(204,217,206); fill-rule: nonzero; opacity: 1;" vector-effect="non-scaling-stroke"  transform=" translate(-195.27, -304.51)" d="M 265.3 258.6 C 265.3 258.6 142.8 258.6 127.10000000000002 307.8 C 111.40000000000003 357 197.8 388.2 265.3 258.6 z" stroke-linecap="round" />
</g>
		<g transform="matrix(1 0 0 1 70.04 -9.29)" id="_xmKo7aVy0MHN4nhoGyYg"  >
<path style="stroke: none; stroke-width: 1; stroke-dasharray: none; stroke-linecap: butt; stroke-dashoffset: 0; stroke-linejoin: miter; stroke-miterlimit: 4; fill: rgb(204,217,206); fill-rule: nonzero; opacity: 1;" vector-effect="non-scaling-stroke"  transform=" translate(-335.32, -304.51)" d="M 265.3 258.6 C 265.3 258.6 387.8 258.6 403.5 307.8 C 419.1 357 332.8 388.2 265.3 258.6 z" stroke-linecap="round" />
</g>
</g>
</g>
</svg>